<?xml version="1.0" encoding="UTF-8"?>
<svg version="1.1" xmlns="http://www.w3.org/2000/svg" width="1024" height="1024">
<path d="M0 0 C337.92 0 675.84 0 1024 0 C1024 337.92 1024 675.84 1024 1024 C686.08 1024 348.16 1024 0 1024 C0 686.08 0 348.16 0 0 Z " fill="#FDFEFD" transform="translate(0,0)"/>
<path d="M0 0 C1.09900635 0.44835205 1.09900635 0.44835205 2.22021484 0.90576172 C18.20136378 7.56547422 32.50927123 17.02580512 45 29 C46.28823479 30.06665841 47.57984077 31.12926014 48.875 32.1875 C63.98907112 45.44278415 74.66132371 62.92963224 83 81 C83.70769531 82.50626953 83.70769531 82.50626953 84.4296875 84.04296875 C87.02638459 89.88956933 88.94649267 95.85549457 90.6875 102 C90.89012451 102.71140137 91.09274902 103.42280273 91.30151367 104.15576172 C94.7200124 116.75443411 95.40697255 128.9598893 95.375 141.9375 C95.37412384 142.80371979 95.37324768 143.66993958 95.37234497 144.56240845 C95.32840262 157.72549795 94.78729123 170.3041194 91 183 C90.75330566 183.8343457 90.50661133 184.66869141 90.25244141 185.52832031 C77.62366009 226.88002046 49.97326538 260.43858888 12 281 C6.77201713 283.5890639 1.40502232 285.81182815 -4 288 C-5.09828125 288.50402344 -6.1965625 289.00804687 -7.328125 289.52734375 C-11.83334716 291.3342254 -16.3421997 292.46628374 -21.0625 293.5625 C-22.34157227 293.87477539 -22.34157227 293.87477539 -23.64648438 294.19335938 C-62.43113731 303.3512456 -104.80027532 298.13005798 -139.27001953 277.65136719 C-175.96906302 254.94061026 -202.35650273 221.06989437 -213 179 C-215.72513606 166.73748894 -216.53723028 154.65497933 -216.4375 142.125 C-216.43412628 141.29583069 -216.43075256 140.46666138 -216.42727661 139.61236572 C-216.35327068 127.02772476 -215.7090992 115.10549211 -212 103 C-211.76925781 102.2064209 -211.53851563 101.4128418 -211.30078125 100.59521484 C-204.31511404 77.03706861 -192.02969609 55.69535197 -175 38 C-174.55430664 37.52852539 -174.10861328 37.05705078 -173.64941406 36.57128906 C-153.33642762 15.14297049 -128.25676499 1.14863575 -100 -7 C-99.23864746 -7.2273584 -98.47729492 -7.4547168 -97.69287109 -7.68896484 C-66.65969889 -16.59961526 -29.39115642 -12.11177453 0 0 Z " fill="#F9FAF8" transform="translate(571,315)"/>
<path d="M0 0 C0.66628418 0.11827148 1.33256836 0.23654297 2.01904297 0.35839844 C28.93607228 5.34702967 52.24533141 19.38955412 72 38 C72.66386719 38.59941406 73.32773437 39.19882812 74.01171875 39.81640625 C98.75329189 63.05240699 111.71871159 97.92188703 113.22265625 131.265625 C113.82412922 152.38296493 111.07855335 183.16422255 97 200 C92.39834424 194.98495673 87.89367713 189.92804013 83.625 184.625 C79.46437925 179.48241457 75.05643696 174.62548263 70.5625 169.77734375 C67.90133655 166.89306447 65.31300992 163.95662867 62.7421875 160.9921875 C60.68499601 158.63979365 58.59403085 156.31965034 56.5 154 C55.74847656 153.1646875 54.99695313 152.329375 54.22265625 151.46875 C52.7755913 149.8614652 51.32523307 148.25713732 49.87109375 146.65625 C49.23300781 145.9446875 48.59492187 145.233125 47.9375 144.5 C47.08478516 143.55640625 47.08478516 143.55640625 46.21484375 142.59375 C45 141 45 141 45 139 C26.52 139 8.04 139 -11 139 C-11 114.91 -11 90.82 -11 66 C-12.65 65.67 -14.3 65.34 -16 65 C-19.06339846 63.78730331 -22.00748098 62.38459835 -25 61 C-25 55.72 -25 50.44 -25 45 C-26.65 44.67 -28.3 44.34 -30 44 C-33.63 42.35 -37.26 40.7 -41 39 C-41 27.45 -41 15.9 -41 4 C-46.94 4 -52.88 4 -59 4 C-59 15.55 -59 27.1 -59 39 C-72 45 -72 45 -74 45 C-74 49.95 -74 54.9 -74 60 C-83.625 64.875 -83.625 64.875 -87 66 C-87.33 79.53 -87.66 93.06 -88 107 C-93.48907897 105.90218421 -97.24003893 103.8069678 -102.0625 101.08203125 C-104.89908271 99.69220365 -104.89908271 99.69220365 -107.39990234 100.78564453 C-109.81837116 101.91517166 -112.18627589 103.08743325 -114.5390625 104.34765625 C-115.36664063 104.78787109 -116.19421875 105.22808594 -117.046875 105.68164062 C-117.89765625 106.13732422 -118.7484375 106.59300781 -119.625 107.0625 C-121.32439389 107.97216054 -123.02487014 108.87980273 -124.7265625 109.78515625 C-125.47502441 110.18613525 -126.22348633 110.58711426 -126.99462891 111.00024414 C-129 112 -129 112 -132 113 C-132.00257813 114.12019531 -132.00515625 115.24039063 -132.0078125 116.39453125 C-132.04533343 117.86722758 -132.08448088 119.33988311 -132.125 120.8125 C-132.12113281 121.91948242 -132.12113281 121.91948242 -132.1171875 123.04882812 C-132.1953125 125.20703125 -132.1953125 125.20703125 -133 129 C-135.76470688 130.89843206 -137.61883554 132 -141 132 C-141 158.73 -141 185.46 -141 213 C-141.66 213 -142.32 213 -143 213 C-149.22746417 202.25577822 -154.83937178 191.72063406 -159 180 C-159.37769531 178.98292969 -159.75539063 177.96585938 -160.14453125 176.91796875 C-171.33831529 144.25895088 -167.3297295 107.72682055 -153.12109375 76.734375 C-136.97342153 43.94198303 -107.78192107 17.61337127 -73.27099609 5.53491211 C-49.4330686 -2.48339056 -24.84034331 -4.43304588 0 0 Z " fill="#C7E2E0" transform="translate(537,322)"/>
<path d="M0 0 C1.09900635 0.44835205 1.09900635 0.44835205 2.22021484 0.90576172 C18.20136378 7.56547422 32.50927123 17.02580512 45 29 C46.28823479 30.06665841 47.57984077 31.12926014 48.875 32.1875 C63.98907112 45.44278415 74.66132371 62.92963224 83 81 C83.70769531 82.50626953 83.70769531 82.50626953 84.4296875 84.04296875 C87.02638459 89.88956933 88.94649267 95.85549457 90.6875 102 C90.89012451 102.71140137 91.09274902 103.42280273 91.30151367 104.15576172 C94.7200124 116.75443411 95.40697255 128.9598893 95.375 141.9375 C95.37412384 142.80371979 95.37324768 143.66993958 95.37234497 144.56240845 C95.32840262 157.72549795 94.78729123 170.3041194 91 183 C90.75330566 183.8343457 90.50661133 184.66869141 90.25244141 185.52832031 C77.62366009 226.88002046 49.97326538 260.43858888 12 281 C6.77201713 283.5890639 1.40502232 285.81182815 -4 288 C-5.09828125 288.50402344 -6.1965625 289.00804687 -7.328125 289.52734375 C-11.83334716 291.3342254 -16.3421997 292.46628374 -21.0625 293.5625 C-22.34157227 293.87477539 -22.34157227 293.87477539 -23.64648438 294.19335938 C-62.43113731 303.3512456 -104.80027532 298.13005798 -139.27001953 277.65136719 C-175.96906302 254.94061026 -202.35650273 221.06989437 -213 179 C-215.72513606 166.73748894 -216.53723028 154.65497933 -216.4375 142.125 C-216.43412628 141.29583069 -216.43075256 140.46666138 -216.42727661 139.61236572 C-216.35327068 127.02772476 -215.7090992 115.10549211 -212 103 C-211.76925781 102.2064209 -211.53851563 101.4128418 -211.30078125 100.59521484 C-204.31511404 77.03706861 -192.02969609 55.69535197 -175 38 C-174.55430664 37.52852539 -174.10861328 37.05705078 -173.64941406 36.57128906 C-153.33642762 15.14297049 -128.25676499 1.14863575 -100 -7 C-99.23864746 -7.2273584 -98.47729492 -7.4547168 -97.69287109 -7.68896484 C-66.65969889 -16.59961526 -29.39115642 -12.11177453 0 0 Z M-100 2 C-100.77037598 2.23605957 -101.54075195 2.47211914 -102.33447266 2.71533203 C-123.76693569 9.46766804 -143.42947536 20.59926455 -159.81640625 35.9921875 C-162 38 -162 38 -164.578125 40.04296875 C-168.21219468 42.9795315 -171.03369008 46.40464771 -174 50 C-174.76570313 50.91652344 -175.53140625 51.83304687 -176.3203125 52.77734375 C-185.607853 64.32126165 -193.03621147 77.10665388 -197.96484375 91.10546875 C-199 94 -199 94 -200.49609375 97.296875 C-202.20717369 101.51013157 -203.19958977 105.62423251 -204.125 110.0625 C-204.29386719 110.83916016 -204.46273438 111.61582031 -204.63671875 112.41601562 C-206.11727532 119.30002079 -207.16346394 125.91363887 -207.23828125 132.9765625 C-207.24802979 133.73568436 -207.25777832 134.49480621 -207.26782227 135.27693176 C-207.53813688 158.90546169 -207.53813688 158.90546169 -203 182 C-202.66097656 183.175625 -202.32195312 184.35125 -201.97265625 185.5625 C-196.8306165 201.37289981 -189.18419451 216.86202665 -179 230 C-178.31679688 230.90363281 -177.63359375 231.80726563 -176.9296875 232.73828125 C-166.94821692 245.46373544 -155.55670449 256.22009957 -142 265 C-141.4220166 265.38494629 -140.8440332 265.76989258 -140.24853516 266.16650391 C-129.81221722 273.07676491 -118.74448863 277.75329044 -107 282 C-105.8346875 282.4228125 -104.669375 282.845625 -103.46875 283.28125 C-68.13106571 295.0604781 -27.7209908 290.38373692 5.375 274.125 C40.99796255 255.8176485 67.8744988 224.8449736 80.25 186.6875 C91.71843374 149.04233824 87.6895296 109.09162856 69.75 74.1875 C51.05635342 39.42459369 18.34396968 13.99568072 -19.2265625 2.6796875 C-22.80955733 1.69454636 -26.36789643 0.78468975 -30 0 C-30.73017334 -0.17515137 -31.46034668 -0.35030273 -32.21264648 -0.53076172 C-41.38304083 -2.50901863 -50.60121686 -2.39784086 -59.9375 -2.375 C-61.24249451 -2.37368576 -61.24249451 -2.37368576 -62.57385254 -2.37234497 C-75.41760728 -2.32959557 -87.66244565 -1.901524 -100 2 Z " fill="#93AB75" transform="translate(571,315)"/>
<path d="M0 0 C1.00933594 0.4640625 2.01867187 0.928125 3.05859375 1.40625 C10.45629699 4.83129699 10.45629699 4.83129699 11.625 6 C11.72108663 7.64490549 11.74687787 9.29395691 11.74525452 10.94166565 C11.74662918 12.01163788 11.74800385 13.08161011 11.74942017 14.18400574 C11.74402725 15.95992851 11.74402725 15.95992851 11.73852539 17.77172852 C11.73867142 19.010578 11.73881744 20.24942749 11.7389679 21.52581787 C11.73838892 24.93269833 11.73335959 28.33951884 11.72639394 31.74638867 C11.72015993 35.30316826 11.71955656 38.85994858 11.71836853 42.41673279 C11.71525535 49.15636582 11.70704215 55.89598271 11.69701904 62.63560861 C11.68585748 70.30658398 11.68034735 77.97756011 11.67532361 85.64854157 C11.66485952 101.43237041 11.64726035 117.21618313 11.625 133 C8.21520845 132.36100762 5.45241881 131.59554074 2.3671875 129.99609375 C1.18974976 129.38616577 1.18974976 129.38616577 -0.01147461 128.76391602 C-1.24329468 128.10734009 -1.24329468 128.10734009 -2.5 127.4375 C-3.77532593 126.75868774 -3.77532593 126.75868774 -5.07641602 126.06616211 C-15.77419838 120.27301764 -25.11075298 113.18343349 -33.69877625 104.55639648 C-35.39492628 102.90778782 -35.39492628 102.90778782 -37.61726379 101.44555664 C-41.82874059 98.15165759 -44.46745823 95.16402394 -45.16729736 89.79124451 C-45.53458967 84.48386676 -45.38797295 79.1849133 -45.25390625 73.87109375 C-45.23710001 71.91100498 -45.22429836 69.95087816 -45.21531677 67.99073792 C-45.18111046 62.8555994 -45.09284449 57.72278732 -44.99298096 52.58856201 C-44.90056848 47.3399604 -44.8597356 42.09097923 -44.81445312 36.84179688 C-44.71820919 26.56018111 -44.56480091 16.28028472 -44.375 6 C-42.17634042 4.89470845 -39.97703114 3.79074277 -37.77734375 2.6875 C-36.856651 2.2244043 -36.856651 2.2244043 -35.9173584 1.75195312 C-21.56041259 -5.44308731 -14.87014138 -6.99771359 0 0 Z " fill="#90A871" transform="translate(447.375,453)"/>
<path d="M0 0 C3.89252812 1.55701125 6.06142977 4.01434106 8.8125 7.125 C9.25263428 7.6192749 9.69276855 8.1135498 10.14624023 8.62280273 C11.43741004 10.07604604 12.7188985 11.53787329 14 13 C14.62390625 13.71027344 15.2478125 14.42054688 15.890625 15.15234375 C16.99802945 16.41757921 18.10352609 17.68448724 19.20703125 18.953125 C25.10676535 25.9557383 25.10676535 25.9557383 31.58981323 32.38136292 C33.33717224 34.3870122 33.4377844 35.46550013 33.57861328 38.09741211 C33.62680206 38.91934555 33.67499084 39.74127899 33.72463989 40.58811951 C33.85924044 44.37155426 33.98135114 48.15344181 34.05029297 51.9387207 C34.09972315 53.92287392 34.18128842 55.90651075 34.29638672 57.88793945 C35.21351145 73.77812229 35.21351145 73.77812229 31.58944702 79.0531311 C27.61724352 83.22074234 22.94054423 86.12060175 18 89 C16.66917911 89.85261271 15.34277104 90.71215923 14.02124023 91.57910156 C0.68004054 100.32053536 -15.23306258 107.4713146 -31 110 C-31.27970818 100.46360019 -31.49207814 90.92863967 -31.62174606 81.38901329 C-31.68402642 76.95772453 -31.76828323 72.52926798 -31.90527344 68.09960938 C-32.03697595 63.81344047 -32.1076716 59.52996991 -32.13852692 55.24193192 C-32.16047223 53.6174944 -32.20332698 51.99318248 -32.26876068 50.36991501 C-32.64195331 40.71584094 -31.74046319 34.50668393 -25.15722656 27.11962891 C-23.1673034 25.00820468 -21.11021924 22.99035417 -19 21 C-18.29736023 20.29684662 -17.59472046 19.59369324 -16.87078857 18.86923218 C-15.83151346 17.83099507 -14.78202677 16.80288075 -13.72265625 15.78515625 C-10.58979354 12.53862958 -7.82961167 8.9755279 -5.015625 5.453125 C-3.41908062 3.51004385 -1.82047747 1.7283014 0 0 Z " fill="#EAD8B8" transform="translate(573,483)"/>
<path d="M0 0 C0.32833278 16.03843092 0.57453674 32.07575772 0.72537041 48.11674595 C0.79729608 55.56652815 0.89518066 63.01421217 1.05615234 70.46264648 C1.19653698 76.96163068 1.28620708 83.45909477 1.31723893 89.95955318 C1.33535849 93.39647212 1.37731218 96.82904638 1.48022079 100.26455879 C2.11092692 123.94806318 2.11092692 123.94806318 -5.10453606 132.31450558 C-7.91760787 135.13484593 -10.81619252 137.60409438 -14 140 C-9.38 140.33 -4.76 140.66 0 141 C0 164.76 0 188.52 0 213 C-9 212 -9 212 -22 208 C-22.33 164.11 -22.66 120.22 -23 75 C-25.64 73.68 -28.28 72.36 -31 71 C-31 51.53 -31 32.06 -31 12 C-3.4 0 -3.4 0 0 0 Z " fill="#647076" transform="translate(487,381)"/>
<path d="M0 0 C6.37912528 2.12637509 12.57333383 4.56329859 18.8125 7.0625 C19.96943359 7.52205078 21.12636719 7.98160156 22.31835938 8.45507812 C23.41599609 8.89400391 24.51363281 9.33292969 25.64453125 9.78515625 C27.15043823 10.38662476 27.15043823 10.38662476 28.68676758 11.00024414 C31 12 31 12 32 13 C32.14806033 15.34427057 32.23154591 17.66032989 32.2722168 20.00732422 C32.28842575 20.74082596 32.3046347 21.4743277 32.32133484 22.23005676 C32.46209519 29.02949985 32.53979998 35.83027202 32.60025311 42.63085747 C32.64111517 47.19736016 32.70118393 51.76170086 32.80932617 56.32714844 C32.91359834 60.74411163 32.96774248 65.15915226 32.98771095 69.57727432 C33.00356214 71.25425649 33.03660882 72.93117498 33.08786583 74.60744858 C33.34292892 83.37547684 33.40101933 89.46368573 27.21801758 96.27392578 C25.48933025 97.86096517 23.75018817 99.43670372 22 101 C20.46775561 102.80647121 18.96299433 104.63700277 17.5 106.5 C12.31085567 112.92861909 6.84424029 119.15575971 1 125 C0.67 83.75 0.34 42.5 0 0 Z " fill="#C2AB88" transform="translate(486,380)"/>
<path d="M0 0 C13.86 0 27.72 0 42 0 C42 23.76 42 47.52 42 72 C28.52341109 75.85045397 14.01586403 74 0 74 C0 49.58 0 25.16 0 0 Z " fill="#92A970" transform="translate(494,522)"/>
<path d="M0 0 C0 40.92 0 81.84 0 124 C-5.62632247 121.74947101 -5.62632247 121.74947101 -8.48828125 119.0234375 C-9.11283203 118.43433594 -9.73738281 117.84523438 -10.38085938 117.23828125 C-11.01830078 116.62339844 -11.65574219 116.00851562 -12.3125 115.375 C-12.93833984 114.78332031 -13.56417969 114.19164062 -14.20898438 113.58203125 C-15.46118913 112.39275781 -16.6967903 111.18570969 -17.91352844 109.96017456 C-19.91187679 107.97721841 -19.91187679 107.97721841 -22.10209656 106.58572388 C-25.23201953 104.23736277 -27.54258757 101.99678033 -28.44303322 98.06599045 C-29.1505087 92.05536698 -28.91628277 86.00675343 -28.78125 79.96875 C-28.76631441 78.00722569 -28.75493361 76.04567137 -28.74694824 74.08410645 C-28.71651775 68.94096331 -28.63803401 63.79965043 -28.54931641 58.65722656 C-28.46722802 53.40194454 -28.43088777 48.14636444 -28.390625 42.890625 C-28.30503023 32.59294932 -28.16863418 22.29662732 -28 12 C-25.80840788 10.89227253 -23.61553287 9.7872172 -21.421875 8.68359375 C-20.50510986 8.21971252 -20.50510986 8.21971252 -19.56982422 7.74645996 C-4.14820636 0 -4.14820636 0 0 0 Z " fill="#647076" transform="translate(431,447)"/>
<path d="M0 0 C1.14514069 -0.01335388 2.29028137 -0.02670776 3.47012329 -0.04046631 C5.88564757 -0.05531412 8.30140868 -0.04720689 10.71679688 -0.01757812 C14.39904894 0.01549017 18.06874408 -0.05787801 21.75 -0.140625 C39.87637428 -0.26591681 39.87637428 -0.26591681 44.49267578 3.56762695 C46.76645862 6.35965294 48.39718962 9.07079331 50.0390625 12.265625 C51.6329229 14.24492992 51.6329229 14.24492992 53.296875 15.90234375 C54.01170044 16.66744263 54.01170044 16.66744263 54.7409668 17.44799805 C55.21058838 17.94468994 55.68020996 18.44138184 56.1640625 18.953125 C57.19478051 20.05657284 58.2247329 21.16073634 59.25390625 22.265625 C59.97682861 23.04099609 59.97682861 23.04099609 60.71435547 23.83203125 C62.97119652 26.27437748 65.14851651 28.78298835 67.3203125 31.30078125 C69.41821169 33.69906146 71.57521972 36.04021317 73.7265625 38.390625 C76.86518691 41.8613223 79.61799088 45.26559363 82.0390625 49.265625 C78.5031928 49.99642062 75.56351295 50.12439955 72.0390625 49.265625 C68.95349814 46.53440991 66.73749158 43.29292252 64.33740234 39.95996094 C61.96214327 36.86024337 59.232402 34.08779157 56.5390625 31.265625 C51.79266533 26.23586084 47.32441916 21.09999311 43.0390625 15.66796875 C40.84855554 13.0367934 38.49053997 10.65326191 36.0390625 8.265625 C26.81099878 18.11666023 26.81099878 18.11666023 17.84765625 28.20703125 C14.1201496 32.4497872 10.27815253 36.60393219 6.39625549 40.70593262 C4.99139505 42.24649364 4.99139505 42.24649364 3.87120056 44.06848145 C1.77549767 47.11104428 0.20242324 48.98056835 -3.46626282 49.87950134 C-6.56785177 50.07574909 -9.5970011 50.05268699 -12.703125 49.94921875 C-13.82663361 49.93931412 -14.95014221 49.92940948 -16.10769653 49.91920471 C-19.6851222 49.88011711 -23.25944427 49.79229698 -26.8359375 49.703125 C-29.26558059 49.66800426 -31.69527193 49.63606661 -34.125 49.60742188 C-40.0713658 49.5303736 -46.01592993 49.41333864 -51.9609375 49.265625 C-51.00878783 47.98517628 -50.05512589 46.705852 -49.10083008 45.42700195 C-48.56992264 44.71445755 -48.0390152 44.00191315 -47.49201965 43.26777649 C-45.66269046 40.87561604 -43.69878197 38.65792103 -41.6484375 36.453125 C-38.46810509 32.97446995 -35.4236163 29.43148759 -32.4609375 25.765625 C-28.88683046 21.3446912 -25.16539943 17.11027558 -21.296875 12.9453125 C-18.98966083 10.44882428 -18.98966083 10.44882428 -17.62207031 8.0796814 C-12.78206946 0.62391694 -8.59296338 -0.09373423 0 0 Z " fill="#626E74" transform="translate(537.9609375,466.734375)"/>
<path d="M0 0 C129.69 0 259.38 0 393 0 C393 2.31 393 4.62 393 7 C263.31 7 133.62 7 0 7 C0 4.69 0 2.38 0 0 Z " fill="#79B4A7" transform="translate(315,733)"/>
<path d="M0 0 C3.96 0 7.92 0 12 0 C12.33 20.13 12.66 40.26 13 61 C14.32 61.66 15.64 62.32 17 63 C17 64.98 17 66.96 17 69 C13.30697391 71.46201739 9.29049358 71.73065831 5 71 C2 69 2 69 0 67 C-1.11375 67.639375 -2.2275 68.27875 -3.375 68.9375 C-8.79585828 72.0494742 -12.69988387 72.6549169 -19 72 C-24.83093511 70.23762756 -28.6321971 67.09981582 -32 62 C-35.99483199 54.18752616 -36.64719539 44.45404695 -34.12109375 36.08984375 C-31.18129842 29.65722229 -27.0639475 25.07445404 -20.7578125 21.85546875 C-17.20875146 20.75455605 -14.08542284 20.77224886 -10.375 20.8125 C-9.06273437 20.81894531 -7.75046875 20.82539062 -6.3984375 20.83203125 C-3 21 -3 21 0 22 C0 14.74 0 7.48 0 0 Z " fill="#4E5354" transform="translate(576,645)"/>
<path d="M0 0 C0.33 8.25 0.66 16.5 1 25 C3.31 23.68 5.62 22.36 8 21 C14.10874274 20.08200109 19.95380749 20.08274129 25.625 22.625 C29.45782908 26.45782908 32.18998935 29.72050962 32.45410156 35.26123047 C32.45347483 36.88002098 32.43126389 38.49890706 32.390625 40.1171875 C32.38496521 40.97434357 32.37930542 41.83149963 32.37347412 42.71463013 C32.35119639 45.4353368 32.30101774 48.15469568 32.25 50.875 C32.2299238 52.72654339 32.211675 54.57810756 32.1953125 56.4296875 C32.15136001 60.9536393 32.08239359 65.47659164 32 70 C28.04 70 24.08 70 20 70 C19.97494385 68.95545654 19.9498877 67.91091309 19.92407227 66.8347168 C19.82991461 62.96007984 19.72971428 59.08561866 19.62768555 55.21118164 C19.58436833 53.53414013 19.54269093 51.85705542 19.50268555 50.17993164 C19.44490515 47.76956159 19.3812332 45.3594083 19.31640625 42.94921875 C19.29969376 42.19912033 19.28298126 41.44902191 19.26576233 40.67619324 C19.17655767 37.54322008 18.99763547 34.9929064 18 32 C13.49140344 30.01621751 7.92447978 30.25879558 3.41308594 31.99633789 C0.60424758 33.88923477 0.60424758 33.88923477 0.34057617 37.73706055 C0.29947724 39.28648287 0.28529043 40.83677046 0.29296875 42.38671875 C0.27784744 43.20372757 0.26272614 44.02073639 0.24714661 44.86250305 C0.20417039 47.47111392 0.19542258 50.07856997 0.1875 52.6875 C0.16436323 54.45641112 0.1389996 56.22529463 0.11132812 57.99414062 C0.04837837 62.3295296 0.01612059 66.66419418 0 71 C-4.29 71 -8.58 71 -13 71 C-13 47.9 -13 24.8 -13 1 C-6 0 -6 0 0 0 Z " fill="#4C5252" transform="translate(617,645)"/>
<path d="M0 0 C1.37961914 -0.03673828 1.37961914 -0.03673828 2.78710938 -0.07421875 C8.68266565 -0.0996489 11.92062844 0.51773508 16.4375 4.375 C20.46489145 8.81901816 20.56799514 13.04770454 20.75390625 18.890625 C20.79580078 20.14101563 20.83769531 21.39140625 20.88085938 22.6796875 C20.92017578 23.98164062 20.95949219 25.28359375 21 26.625 C21.04318359 27.94242188 21.08636719 29.25984375 21.13085938 30.6171875 C21.23691917 33.86968788 21.33898024 37.12226392 21.4375 40.375 C22.7575 41.035 24.0775 41.695 25.4375 42.375 C25.4375 44.685 25.4375 46.995 25.4375 49.375 C21.70051756 50.57083438 18.33774399 50.77847352 14.4375 50.375 C12.10735091 48.91674477 10.42417958 47.31322398 8.4375 45.375 C7.88320313 45.72433594 7.32890625 46.07367187 6.7578125 46.43359375 C5.67113281 47.11615234 5.67113281 47.11615234 4.5625 47.8125 C3.84320312 48.26496094 3.12390625 48.71742188 2.3828125 49.18359375 C-1.94324041 51.83308398 -5.55984258 51.83899015 -10.5625 51.375 C-15.28128688 49.68335942 -17.76832817 47.51451382 -20.5625 43.375 C-22.32202352 38.09642945 -22.36412954 33.26976074 -20.1875 28.125 C-14.8308766 22.5132993 -7.61214262 19.55929353 0.11328125 19.27734375 C0.98339844 19.28894531 1.85351562 19.30054688 2.75 19.3125 C3.63300781 19.32152344 4.51601563 19.33054687 5.42578125 19.33984375 C6.42158203 19.35724609 6.42158203 19.35724609 7.4375 19.375 C7.355 18.09625 7.2725 16.8175 7.1875 15.5 C7.14109375 14.78070312 7.0946875 14.06140625 7.046875 13.3203125 C6.60623529 11.24399159 6.60623529 11.24399159 4.75390625 10.12890625 C-1.8466238 7.98067303 -9.82141126 9.1493475 -16.5625 10.375 C-16.8925 7.735 -17.2225 5.095 -17.5625 2.375 C-11.64554443 0.34028351 -6.23264694 0.0087722 0 0 Z " fill="#4E5354" transform="translate(682.5625,665.625)"/>
<path d="M0 0 C0.86753906 -0.01998047 1.73507812 -0.03996094 2.62890625 -0.06054688 C8.19616434 -0.05631 11.56484068 0.59416802 15.875 4.4375 C19.40278432 8.91669251 20.38735367 11.91018984 20.484375 17.5859375 C20.50091125 18.24332916 20.51744751 18.90072083 20.53448486 19.57803345 C20.58266603 21.65628676 20.60426614 23.73381026 20.625 25.8125 C20.65318516 27.23050488 20.68311613 28.64847621 20.71484375 30.06640625 C20.78841292 33.52328041 20.83817098 36.98001673 20.875 40.4375 C22.195 41.0975 23.515 41.7575 24.875 42.4375 C24.875 44.4175 24.875 46.3975 24.875 48.4375 C21.70878453 50.54831032 18.62196809 50.90333685 14.84765625 50.83984375 C11.53190031 50.16356085 9.91377415 47.98596769 7.875 45.4375 C7.32070313 45.78683594 6.76640625 46.13617187 6.1953125 46.49609375 C5.10863281 47.17865234 5.10863281 47.17865234 4 47.875 C3.28070313 48.32746094 2.56140625 48.77992188 1.8203125 49.24609375 C-2.50574041 51.89558398 -6.12234258 51.90149015 -11.125 51.4375 C-15.84378688 49.74585942 -18.33082817 47.57701382 -21.125 43.4375 C-22.50365872 39.30152385 -22.96759537 35.7479672 -22.125 31.4375 C-18.17748211 24.655266 -13.10133218 21.91695011 -5.8125 19.75 C-1.58944586 19.25894719 2.62884124 19.36329528 6.875 19.4375 C6.7925 18.15875 6.71 16.88 6.625 15.5625 C6.57859375 14.84320312 6.5321875 14.12390625 6.484375 13.3828125 C6.04518128 11.29203938 6.04518128 11.29203938 4.12109375 10.1953125 C-2.79192598 7.86291976 -10.28042877 9.67115904 -17.125 11.4375 C-17.455 8.7975 -17.785 6.1575 -18.125 3.4375 C-11.89326702 0.7120205 -6.77148033 -0.05583679 0 0 Z " fill="#4F5556" transform="translate(403.125,665.5625)"/>
<path d="M0 0 C4.62 0 9.24 0 14 0 C14.50974365 1.53446777 15.0194873 3.06893555 15.54467773 4.64990234 C17.43102382 10.3270008 19.31933596 16.00344365 21.20825195 21.6796875 C22.02649984 24.13946902 22.84420986 26.59942953 23.66137695 29.05957031 C24.83404432 32.58966176 26.00862584 36.11911121 27.18359375 39.6484375 C27.55028671 40.75367767 27.91697968 41.85891785 28.29478455 42.99765015 C28.6350618 44.01855743 28.97533905 45.03946472 29.32592773 46.09130859 C29.77560158 47.44366104 29.77560158 47.44366104 30.23435974 48.82333374 C30.95167876 51.00759665 30.95167876 51.00759665 32 53 C37.94 35.51 43.88 18.02 50 0 C53.3 0 56.6 0 60 0 C59.39359592 3.34046774 58.5796137 6.43845909 57.42114258 9.62817383 C57.10023148 10.51712845 56.77932037 11.40608307 56.44868469 12.32197571 C56.10081406 13.27404404 55.75294342 14.22611237 55.39453125 15.20703125 C55.03284348 16.20522385 54.6711557 17.20341644 54.29850769 18.2318573 C53.13984338 21.42662814 51.97614086 24.6195389 50.8125 27.8125 C50.04851946 29.91850784 49.28484451 32.02462657 48.52148438 34.13085938 C44.41532753 45.44628908 40.26037519 56.74169664 36 68 C31.71 68 27.42 68 23 68 C22.44538086 66.42178467 21.89076172 64.84356934 21.31933594 63.2175293 C19.4718376 57.96076619 17.62378648 52.70419764 15.77537155 47.44775677 C14.65641501 44.26565458 13.53766977 41.08347846 12.41943359 37.90112305 C11.12913683 34.22945918 9.8380757 30.55806482 8.546875 26.88671875 C8.15191833 25.76230881 7.75696167 24.63789886 7.35003662 23.47941589 C6.96994446 22.39912613 6.58985229 21.31883636 6.19824219 20.20581055 C5.83420288 19.17024017 5.47016357 18.1346698 5.09509277 17.06771851 C3.6821199 13.10951228 2.20678969 9.1753629 0.71514893 5.24617004 C0 3 0 3 0 0 Z " fill="#4C5253" transform="translate(317,648)"/>
<path d="M0 0 C0.01458252 1.06959961 0.02916504 2.13919922 0.04418945 3.24121094 C0.10222301 7.21485594 0.17945519 11.18793725 0.26245117 15.16113281 C0.29567681 16.87978965 0.32371616 18.59855499 0.34643555 20.31738281 C0.38002561 22.79018323 0.43234178 25.26199156 0.48828125 27.734375 C0.49467117 28.50118591 0.5010611 29.26799683 0.50764465 30.05804443 C0.62309506 34.26007493 0.87041845 37.03485652 4 40 C6.09998107 40.59353861 6.09998107 40.59353861 8.375 40.4375 C9.50035156 40.43556641 9.50035156 40.43556641 10.6484375 40.43359375 C13.82369942 39.84812187 15.49154027 39.07543811 18 37 C18.52598044 34.09240506 18.72187431 31.74569825 18.70703125 28.83203125 C18.72215256 28.03721848 18.73727386 27.2424057 18.75285339 26.42350769 C18.79582342 23.88621866 18.8045767 21.35011704 18.8125 18.8125 C18.83563729 17.0917651 18.86100103 15.37105859 18.88867188 13.65039062 C18.95161536 9.43348838 18.98387798 5.21733072 19 1 C24.94 0.505 24.94 0.505 31 0 C31.02505615 1.17095215 31.0501123 2.3419043 31.07592773 3.54833984 C31.16993703 7.88325378 31.27017341 12.21800504 31.37231445 16.55273438 C31.41568789 18.43062542 31.45736118 20.30855652 31.49731445 22.18652344 C31.55495876 24.8822844 31.61866981 27.57784327 31.68359375 30.2734375 C31.70030624 31.11619232 31.71701874 31.95894714 31.73423767 32.82723999 C31.73236144 37.0486661 31.73236144 37.0486661 33 41 C33.99 41.33 34.98 41.66 36 42 C36 44.31 36 46.62 36 49 C32.28383968 50.1891713 28.87902498 50.34026535 25 50 C22.0625 48.125 22.0625 48.125 20 46 C20 45.34 20 44.68 20 44 C19.34 44 18.68 44 18 44 C18 44.66 18 45.32 18 46 C11.70682275 50.25625514 6.62737497 52.18243803 -1 51 C-6.51189515 49.06062948 -9.43944817 46.02630379 -12.09716797 40.87231445 C-13.3008116 37.04298309 -13.24761544 33.38796592 -13.1953125 29.41796875 C-13.1924826 28.60378983 -13.18965271 27.7896109 -13.18673706 26.95075989 C-13.17558584 24.362854 -13.15049083 21.77530042 -13.125 19.1875 C-13.11496365 17.42773939 -13.10583894 15.66797333 -13.09765625 13.90820312 C-13.0756631 9.60533402 -13.04116836 5.30272664 -13 1 C-8.60563789 0.14256349 -4.47427924 -0.08948558 0 0 Z " fill="#505556" transform="translate(497,666)"/>
<path d="M0 0 C65.01 0 130.02 0 197 0 C197 1.98 197 3.96 197 6 C131.99 6 66.98 6 0 6 C0 4.02 0 2.04 0 0 Z " fill="#90A875" transform="translate(511,734)"/>
<path d="M0 0 C-0.33 2.64 -0.66 5.28 -1 8 C-2.7015625 7.505 -2.7015625 7.505 -4.4375 7 C-8.9187855 5.88366553 -13.4007687 5.38314057 -18 6 C-18.99 6.66 -19.98 7.32 -21 8 C-21.10698955 10.3809923 -21.10698955 10.3809923 -20 13 C-17.60680762 14.74976907 -14.95620868 15.87376925 -12.25 17.0625 C-0.7666709 22.27750108 -0.7666709 22.27750108 2.28515625 26.98046875 C3.81103532 31.29128557 3.97517191 35.81946539 2.08984375 40.03515625 C-0.96586412 44.66293248 -4.47101581 46.91061792 -9.796875 48.5546875 C-18.20164669 50.25352433 -26.15555141 49.19096214 -34 46 C-33.67 43.03 -33.34 40.06 -33 37 C-27.25 38.875 -27.25 38.875 -25 40 C-22.83589316 40.12244289 -20.66753477 40.17551142 -18.5 40.1875 C-17.3346875 40.20167969 -16.169375 40.21585938 -14.96875 40.23046875 C-11.88093282 40.31443714 -11.88093282 40.31443714 -10 38 C-9.83312552 35.41645782 -9.83312552 35.41645782 -10 33 C-10.94359375 32.52820313 -10.94359375 32.52820313 -11.90625 32.046875 C-13.69323289 31.15338356 -15.47828138 30.25601633 -17.26171875 29.35546875 C-18.91645443 28.53636279 -20.5831353 27.74004812 -22.26953125 26.98828125 C-26.77658458 24.94588806 -30.96194418 22.74294096 -33 18 C-33.83191645 12.57413783 -33.99609065 7.80772007 -31.3125 2.9375 C-21.89746009 -4.95077668 -10.98217856 -4.45653623 0 0 Z " fill="#4F5456" transform="translate(470,668)"/>
<path d="M0 0 C0.02505615 1.17095215 0.0501123 2.3419043 0.07592773 3.54833984 C0.16993703 7.88325378 0.27017341 12.21800504 0.37231445 16.55273438 C0.41568789 18.43062542 0.45736118 20.30855652 0.49731445 22.18652344 C0.55495876 24.8822844 0.61866981 27.57784327 0.68359375 30.2734375 C0.70030624 31.11619232 0.71701874 31.95894714 0.73423767 32.82723999 C0.73236144 37.0486661 0.73236144 37.0486661 2 41 C3.485 41.495 3.485 41.495 5 42 C5 44.31 5 46.62 5 49 C1.28383968 50.1891713 -2.12097502 50.34026535 -6 50 C-8.9375 48.125 -8.9375 48.125 -11 46 C-11 45.34 -11 44.68 -11 44 C-11.66 44 -12.32 44 -13 44 C-13 44.66 -13 45.32 -13 46 C-13.99 46 -14.98 46 -16 46 C-15 43 -14 40 -13 37 C-12.84629652 34.27116927 -12.74271735 31.56302858 -12.68359375 28.83203125 C-12.66281265 28.03721848 -12.64203156 27.2424057 -12.62062073 26.42350769 C-12.55527913 23.88659237 -12.49631192 21.34957427 -12.4375 18.8125 C-12.39430014 17.09178628 -12.35068537 15.37108292 -12.30664062 13.65039062 C-12.19961352 9.43369887 -12.09830276 5.2169038 -12 1 C-7.93631321 0.22596442 -4.13574827 -0.0984702 0 0 Z " fill="#4A5050" transform="translate(528,666)"/>
<path d="M0 0 C1.35413435 0.62333168 2.69339212 1.28236635 4 2 C4.09893453 6.07496103 4.17149694 10.14945656 4.21972656 14.2253418 C4.23983275 15.61153338 4.26712245 16.99764025 4.30175781 18.38354492 C4.35031225 20.37641906 4.37083972 22.36991389 4.390625 24.36328125 C4.41157227 25.56251221 4.43251953 26.76174316 4.45410156 27.99731445 C4 31 4 31 2.22167969 32.89135742 C-1.14593078 34.57183205 -4.35800613 34.50886142 -8 34 C-11.65190552 32.67203436 -13.36796252 30.82146351 -15.3125 27.5625 C-17.7292233 22.18430021 -17.89937094 16.77613233 -17 11 C-15.34561949 6.76234501 -13.08521817 3.91386794 -9.625 1 C-6.22443544 -0.29545317 -3.61248986 -0.32840817 0 0 Z " fill="#F9FAF9" transform="translate(571,674)"/>
<path d="M0 0 C1.32 0 2.64 0 4 0 C4.33 10.56 4.66 21.12 5 32 C9.95 34.31 14.9 36.62 20 39 C20 42.3 20 45.6 20 49 C11.29464286 46.1875 11.29464286 46.1875 7.3125 44.25 C1.48570181 42.05120823 -3.29282692 44.34102296 -8.875 46.5625 C-10.60363281 47.24505859 -10.60363281 47.24505859 -12.3671875 47.94140625 C-13.23601562 48.29074219 -14.10484375 48.64007813 -15 49 C-15 45.37 -15 41.74 -15 38 C-10.38 36.02 -5.76 34.04 -1 32 C-0.67 21.44 -0.34 10.88 0 0 Z " fill="#6C7579" transform="translate(485,333)"/>
<path d="M0 0 C6.53605297 1.98062211 11.27183705 6.41343302 14.9375 12.0625 C17.83867227 17.69249767 17.99339002 23.81614712 17 30 C15.46875 32.38671875 15.46875 32.38671875 14 34 C13.73445312 33.11957031 13.46890625 32.23914063 13.1953125 31.33203125 C12.84210937 30.17058594 12.48890625 29.00914062 12.125 27.8125 C11.77695312 26.66394531 11.42890625 25.51539063 11.0703125 24.33203125 C10.15781129 21.49128843 9.15019636 18.75114535 8 16 C7.34 16 6.68 16 6 16 C6.28875 16.60585938 6.5775 17.21171875 6.875 17.8359375 C9.6566276 24.11391646 10.52372704 29.16245253 10 36 C3.77901366 32.23847338 -0.656009 28.11531489 -3 21 C-3.8073297 13.49288228 -2.94142117 6.9333499 0 0 Z " fill="#99AF7B" transform="translate(618,304)"/>
<path d="M0 0 C2.03747958 1.00849934 4.01206742 2.08961492 5.98852539 3.21264648 C6.67237305 3.58969727 7.3562207 3.96674805 8.06079102 4.35522461 C9.72960336 5.2771559 11.39110404 6.2123016 13.05102539 7.15014648 C13.05102539 10.45014648 13.05102539 13.75014648 13.05102539 17.15014648 C7.58381899 16.35602712 3.17401073 13.82473401 -1.69506836 11.32983398 C-6.73322588 9.50327508 -10.09437161 10.69514372 -14.81616211 12.77905273 C-16.1557301 13.41600418 -17.49164779 14.06068423 -18.82397461 14.71264648 C-19.51233398 15.04200195 -20.20069336 15.37135742 -20.90991211 15.71069336 C-22.5928479 16.51710009 -24.27137754 17.33269142 -25.94897461 18.15014648 C-25.94897461 14.52014648 -25.94897461 10.89014648 -25.94897461 7.15014648 C-23.27274966 5.6058232 -20.58595035 4.09033232 -17.88647461 2.58764648 C-17.13430664 2.15000977 -16.38213867 1.71237305 -15.60717773 1.26147461 C-9.93736029 -1.85569775 -6.20576529 -2.70603394 0 0 Z " fill="#9BAC77" transform="translate(437.948974609375,431.849853515625)"/>
<path d="M0 0 C0.83595703 0.01353516 1.67191406 0.02707031 2.53320312 0.04101562 C4.58491498 0.07618783 6.63629275 0.12998952 8.6875 0.1875 C7.79513139 6.72224094 5.90086604 11.50969497 0.7421875 15.80859375 C-5.07842226 19.49080745 -10.53877705 19.99803095 -17.3125 19.1875 C-17.9725 18.8575 -18.6325 18.5275 -19.3125 18.1875 C-19.88931537 12.65007241 -18.84569645 9.6687642 -15.89453125 4.984375 C-11.24032406 -0.30188502 -6.58854456 -0.20280445 0 0 Z " fill="#96AC77" transform="translate(654.3125,329.8125)"/>
<path d="M0 0 C6.93 0 13.86 0 21 0 C16.8471605 10.38209876 9.44194861 22.70536759 0 29 C0 19.43 0 9.86 0 0 Z " fill="#C9E3E2" transform="translate(613,522)"/>
<path d="M0 0 C0.91007813 0.00902344 1.82015625 0.01804687 2.7578125 0.02734375 C3.45648437 0.03894531 4.15515625 0.05054688 4.875 0.0625 C4.95607583 1.99931161 5.01422475 3.9370934 5.0625 5.875 C5.11470703 7.49341797 5.11470703 7.49341797 5.16796875 9.14453125 C4.875 12.0625 4.875 12.0625 3.55078125 13.88671875 C-0.14281635 16.47826392 -3.76154665 16.44525907 -8.125 16.0625 C-10.5625 14.4375 -10.5625 14.4375 -12.125 12.0625 C-12.6875 9.125 -12.6875 9.125 -12.125 6.0625 C-8.19132041 1.40419522 -5.9759219 -0.07661438 0 0 Z " fill="#F9F8F7" transform="translate(685.125,691.9375)"/>
<path d="M0 0 C0.91007812 0.00902344 1.82015625 0.01804687 2.7578125 0.02734375 C3.45648438 0.03894531 4.15515625 0.05054688 4.875 0.0625 C5.00996251 2.16491603 5.10697307 4.2697961 5.1875 6.375 C5.24550781 7.54675781 5.30351562 8.71851563 5.36328125 9.92578125 C4.875 13.0625 4.875 13.0625 2.61328125 14.95703125 C-1.38360039 16.57060829 -3.82537244 16.47859299 -8.125 16.0625 C-10.125 15.0625 -10.125 15.0625 -11.125 13.0625 C-11.90169903 6.07220874 -11.90169903 6.07220874 -9.25 2.625 C-5.92075333 0.17702451 -4.09162163 -0.05245669 0 0 Z " fill="#F8F8F9" transform="translate(405.125,691.9375)"/>
<path d="M0 0 C0.33 0 0.66 0 1 0 C1.33 10.56 1.66 21.12 2 32 C6.95 34.31 11.9 36.62 17 39 C17 42.3 17 45.6 17 49 C10.68419838 46.99498361 5.15296721 44.73465209 -1 42 C-0.67 28.14 -0.34 14.28 0 0 Z " fill="#C6B395" transform="translate(488,333)"/>
<path d="M0 0 C0 3.3 0 6.6 0 10 C-6.27 12.97 -12.54 15.94 -19 19 C-19 15.37 -19 11.74 -19 8 C-16.58858519 6.65632608 -14.17166012 5.32497485 -11.75 4 C-11.06808594 3.6184375 -10.38617188 3.236875 -9.68359375 2.84375 C-9.01972656 2.4828125 -8.35585938 2.121875 -7.671875 1.75 C-7.0644043 1.41484375 -6.45693359 1.0796875 -5.83105469 0.734375 C-4 0 -4 0 0 0 Z " fill="#697276" transform="translate(431,431)"/>
<path d="M0 0 C3.63 0 7.26 0 11 0 C11 3.63 11 7.26 11 11 C7.37 11 3.74 11 0 11 C0 7.37 0 3.74 0 0 Z " fill="#707B7C" transform="translate(561,543)"/>
<path d="M0 0 C3.63 0 7.26 0 11 0 C11 3.63 11 7.26 11 11 C7.37 11 3.74 11 0 11 C0 7.37 0 3.74 0 0 Z " fill="#6E797B" transform="translate(561,527)"/>
<path d="M0 0 C3.3 0 6.6 0 10 0 C10 3.3 10 6.6 10 10 C6.7 10 3.4 10 0 10 C0 6.7 0 3.4 0 0 Z " fill="#626F74" transform="translate(577,543)"/>
<path d="M0 0 C3.3 0 6.6 0 10 0 C10 3.3 10 6.6 10 10 C6.7 10 3.4 10 0 10 C0 6.7 0 3.4 0 0 Z " fill="#637074" transform="translate(577,528)"/>
</svg>
