<?xml version="1.0" encoding="UTF-8"?>
<svg version="1.1" xmlns="http://www.w3.org/2000/svg" width="500" height="500">
<path d="M0 0 C0 0.66 0 1.32 0 2 C0.58136719 2.25910156 1.16273438 2.51820313 1.76171875 2.78515625 C14.00935314 9.43265065 20.32739453 24.24731307 24.38183594 36.88867188 C28.03258093 49.35772508 28.93584949 61.0964051 26.3125 73.8125 C26.04566406 75.12190552 26.04566406 75.12190552 25.7734375 76.45776367 C23.70535262 86.08238112 20.14287192 94.61902353 15 103 C14.34 103 13.68 103 13 103 C12.814375 103.66 12.62875 104.32 12.4375 105 C8.92542791 112.32954176 2.97430273 117.01266756 -3.4375 121.75 C-4.36792114 122.43956787 -4.36792114 122.43956787 -5.31713867 123.14306641 C-22.15285212 135.24187735 -42.77746179 139.00770908 -63.08203125 135.74609375 C-78.26442022 132.85493095 -94.63352825 126.00782978 -105 114 C-105 113.34 -105 112.68 -105 112 C-105.66 112 -106.32 112 -107 112 C-111 107.52941176 -111 107.52941176 -111 105 C-111.66 105 -112.32 105 -113 105 C-124.61808986 84.4945679 -130.77012548 63.79342556 -124.96875 40.265625 C-121.94644254 30.07752406 -117.27631237 20.5900964 -111 12 C-110.34 12 -109.68 12 -109 12 C-108.74863281 11.42507812 -108.49726563 10.85015625 -108.23828125 10.2578125 C-106.83830319 7.70517112 -105.23840451 5.93766878 -103.1875 3.875 C-102.52105469 3.19179687 -101.85460937 2.50859375 -101.16796875 1.8046875 C-98.86864715 -0.10934237 -96.81865249 -1.04569183 -94 -2 C-94 -2.66 -94 -3.32 -94 -4 C-68.18417169 -25.16153234 -24.49101304 -19.91576885 0 0 Z M-80 -4 C-80.92554688 -3.59136719 -81.85109375 -3.18273437 -82.8046875 -2.76171875 C-98.92415522 5.15784582 -111.79237938 20.5092448 -117.625 37.375 C-122.48571457 55.06260024 -121.75363009 72.88924493 -114.28125 89.75 C-113.05745806 91.89909804 -111.84412063 93.370312 -110 95 C-110.4125 93.80375 -110.825 92.6075 -111.25 91.375 C-111.83579628 89.5841371 -112.41882362 87.79236749 -113 86 C-113.34804687 84.97132813 -113.69609375 83.94265625 -114.0546875 82.8828125 C-119.82178463 64.65541792 -119.31093288 46.29530198 -110.99511719 28.89501953 C-102.3240684 12.3825856 -88.51749159 1.17164294 -71 -5 C-69.5459375 -5.5878125 -69.5459375 -5.5878125 -68.0625 -6.1875 C-51.68389833 -10.5328433 -33.2050751 -7.99808048 -18 -1 C-6.38062201 5.76155894 3.16555218 14.37092418 10 26 C10.36738281 26.59941406 10.73476563 27.19882813 11.11328125 27.81640625 C19.08399185 42.06520551 20.77926298 61.394733 16.8125 77.125 C16.2500914 78.7649204 15.64476139 80.39067557 15 82 C14.63648438 82.99 14.27296875 83.98 13.8984375 85 C11.34621278 91.58638638 8.17977075 97.31206455 4 103 C4.33 103.66 4.66 104.32 5 105 C18.34193078 86.55506578 23.27490842 68.9386126 20.53125 46.09765625 C17.23224655 28.32623888 6.33627795 12.8067882 -8 2 C-30.29585426 -12.59342309 -55.63077205 -14.90202303 -80 -4 Z M-59 -2 C-60.4783226 0.95664519 -60.06032783 3.74229737 -60 7 C-57.58878141 5.04366025 -57.58878141 5.04366025 -57.875 1.375 C-57.91625 0.26125 -57.9575 -0.8525 -58 -2 C-58.33 -2 -58.66 -2 -59 -2 Z M-64 -1 C-64 0.98 -64 2.96 -64 5 C-63.67 5 -63.34 5 -63 5 C-63 3.02 -63 1.04 -63 -1 C-63.33 -1 -63.66 -1 -64 -1 Z M-64 9 C-63 13 -63 13 -63 13 Z M-59 9 C-59.33 10.32 -59.66 11.64 -60 13 C-59.34 13 -58.68 13 -58 13 C-58.33 11.68 -58.66 10.36 -59 9 Z M-57 14 C-56.34 14.66 -55.68 15.32 -55 16 C-54.01 15.67 -53.02 15.34 -52 15 C-53.65 14.67 -55.3 14.34 -57 14 Z M-71 16 C-71.33 16.99 -71.66 17.98 -72 19 C-71.34 19.66 -70.68 20.32 -70 21 C-70 19.35 -70 17.7 -70 16 C-70.33 16 -70.66 16 -71 16 Z M-52 16 C-51.01 17.485 -51.01 17.485 -50 19 C-50 18.01 -50 17.02 -50 16 C-50.66 16 -51.32 16 -52 16 Z M-51 21 C-51 22.32 -51 23.64 -51 25 C-48.525 25.99 -48.525 25.99 -46 27 C-45.67 39.87 -45.34 52.74 -45 66 C-44.01 65.34 -43.02 64.68 -42 64 C-39.27270508 63.68115234 -39.27270508 63.68115234 -36.01953125 63.5859375 C-34.85615234 63.54726562 -33.69277344 63.50859375 -32.49414062 63.46875 C-31.27919922 63.4378125 -30.06425781 63.406875 -28.8125 63.375 C-27.58595703 63.33632812 -26.35941406 63.29765625 -25.09570312 63.2578125 C-22.06395344 63.16343897 -19.03221159 63.07785451 -16 63 C-16 62.67 -16 62.34 -16 62 C-24.91 61.67 -33.82 61.34 -43 61 C-43 49.45 -43 37.9 -43 26 C-44.98 25.01 -46.96 24.02 -49 23 C-49.66 22.34 -50.32 21.68 -51 21 Z M-72 22 C-72.33 22.99 -72.66 23.98 -73 25 C-73.99 25.33 -74.98 25.66 -76 26 C-72.06924356 25.42547254 -72.06924356 25.42547254 -69 23 C-69.99 22.67 -70.98 22.34 -72 22 Z M-78 26 C-78 30.95 -78 35.9 -78 41 C-77.67 41 -77.34 41 -77 41 C-76.67 36.05 -76.34 31.1 -76 26 C-76.66 26 -77.32 26 -78 26 Z M-78 45 C-78 45.66 -78 46.32 -78 47 C-79.32 47.33 -80.64 47.66 -82 48 C-81.360625 48.12375 -80.72125 48.2475 -80.0625 48.375 C-79.381875 48.58125 -78.70125 48.7875 -78 49 C-77.67 49.66 -77.34 50.32 -77 51 C-77 49.02 -77 47.04 -77 45 C-77.33 45 -77.66 45 -78 45 Z M-100 54 C-99 56 -99 56 -99 56 Z M-74 59 C-73 61 -73 61 -73 61 Z M-104 60 C-104.86568531 66.6008505 -105.10968874 73.10172496 -105.125 79.75 C-105.12951172 80.56573486 -105.13402344 81.38146973 -105.13867188 82.22192383 C-105.12794236 86.59375484 -104.87472591 90.69579314 -104 95 C-103.67 95 -103.34 95 -103 95 C-103 83.45 -103 71.9 -103 60 C-103.33 60 -103.66 60 -104 60 Z M-14 65 C-14 65.66 -14 66.32 -14 67 C-13.34 66.67 -12.68 66.34 -12 66 C-12.66 65.67 -13.32 65.34 -14 65 Z M-47 67 C-46 69 -46 69 -46 69 Z M-12 67 C-10.6910428 70.12197478 -10.6910428 70.12197478 -8 72 C-9.3089572 68.87802522 -9.3089572 68.87802522 -12 67 Z M-6 74 C-6 74.66 -6 75.32 -6 76 C-5.34 75.67 -4.68 75.34 -4 75 C-4.66 74.67 -5.32 74.34 -6 74 Z M-54 75 C-53 77 -53 77 -53 77 Z M-4 76 C-3.34 77.32 -2.68 78.64 -2 80 C-2 79.01 -2 78.02 -2 77 C-2.66 76.67 -3.32 76.34 -4 76 Z M-58 80 C-58.33 80.66 -58.66 81.32 -59 82 C-58.34 82 -57.68 82 -57 82 C-57.33 81.34 -57.66 80.68 -58 80 Z M-60 82 C-60.66 83.32 -61.32 84.64 -62 86 C-61.01 85.34 -60.02 84.68 -59 84 C-59.33 83.34 -59.66 82.68 -60 82 Z M3 84 C3.33 84.99 3.66 85.98 4 87 C2.02 87.33 0.04 87.66 -2 88 C-2.02505615 88.65597168 -2.0501123 89.31194336 -2.07592773 89.98779297 C-2.1917326 92.95040183 -2.31452886 95.91268031 -2.4375 98.875 C-2.47681641 99.90753906 -2.51613281 100.94007813 -2.55664062 102.00390625 C-2.59853516 102.99003906 -2.64042969 103.97617187 -2.68359375 104.9921875 C-2.72025146 105.90339355 -2.75690918 106.81459961 -2.79467773 107.75341797 C-3 110 -3 110 -4 112 C-0.63279613 110.60667426 0.9859524 109.0210714 3 106 C2.01 105.67 1.02 105.34 0 105 C0 100.05 0 95.1 0 90 C2.64 90 5.28 90 8 90 C6.63016497 86.83884224 6.0109362 86.0072908 3 84 Z M-110 95 C-109 97 -109 97 -109 97 Z M-63 86 C-63.66 87.32 -64.32 88.64 -65 90 C-63.68 90.33 -62.36 90.66 -61 91 C-60.505 108.82 -60.505 108.82 -60 127 C-62.97 126.34 -65.94 125.68 -69 125 C-70.32 125 -71.64 125 -73 125 C-73 122.03 -73 119.06 -73 116 C-73.33 116 -73.66 116 -74 116 C-74 118.31 -74 120.62 -74 123 C-79.28432919 120.93221901 -83.95263014 118.30907249 -88.765625 115.3046875 C-91.04603204 113.87060676 -91.04603204 113.87060676 -94 113 C-94 112.34 -94 111.68 -94 111 C-95.09152728 110.08358405 -96.22420455 109.21578525 -97.375 108.375 C-101.51784816 104.99376635 -102.19345579 102.19772932 -103 97 C-104.98 97.99 -104.98 97.99 -107 99 C-105.60240095 102.54518884 -105.60240095 102.54518884 -104 106 C-103.34 106 -102.68 106 -102 106 C-101.34 107.32 -100.68 108.64 -100 110 C-99.34 110 -98.68 110 -98 110 C-98 110.66 -98 111.32 -98 112 C-97.34 112 -96.68 112 -96 112 C-96 112.66 -96 113.32 -96 114 C-79.50307964 127.26119 -59.06696287 131.77966245 -38.25390625 129.609375 C-26.35100197 127.64445112 -14.25096384 123.07289894 -6 114 C-9.54340898 115.31307177 -12.57429201 116.89819732 -15.75 118.9375 C-20.38337141 121.75453498 -24.767063 123.62578524 -30 125 C-30.71027344 125.20496094 -31.42054688 125.40992188 -32.15234375 125.62109375 C-40.95637372 127.80328921 -48.4601593 127 -58 127 C-58.33 114.79 -58.66 102.58 -59 90 C-51.41 90 -43.82 90 -36 90 C-35.505 91.98 -35.505 91.98 -35 94 C-35 92.02 -35 90.04 -35 88 C-48.365 88.495 -48.365 88.495 -62 89 C-62.495 87.515 -62.495 87.515 -63 86 Z M-36 103 C-35 106 -35 106 -35 106 Z M-5 112 C-5.33 112.66 -5.66 113.32 -6 114 C-5.34 114 -4.68 114 -4 114 C-4.33 113.34 -4.66 112.68 -5 112 Z " fill="#C9E2DF" transform="translate(299,164)"/>
<path d="M0 0 C0.66 0 1.32 0 2 0 C2 2.97 2 5.94 2 9 C2.66 9.33 3.32 9.66 4 10 C3.34 11.65 2.68 13.3 2 15 C4.65228812 16.07525194 7.28368454 17.09456151 10 18 C10 20.97 10 23.94 10 27 C10.969375 27.144375 11.93875 27.28875 12.9375 27.4375 C16 28 16 28 17 29 C17.16017166 31.80976518 17.25950534 34.59773596 17.31640625 37.41015625 C17.33718735 38.25219101 17.35796844 39.09422577 17.37937927 39.96177673 C17.44496812 42.66193179 17.50380276 45.36218717 17.5625 48.0625 C17.60567637 49.88868241 17.64929036 51.71485454 17.69335938 53.54101562 C17.80065894 58.02723992 17.90189966 62.5135655 18 67 C18.66 66.34 19.32 65.68 20 65 C22.61376953 64.77294922 22.61376953 64.77294922 25.8828125 64.8046875 C27.63271484 64.81435547 27.63271484 64.81435547 29.41796875 64.82421875 C30.64128906 64.84097656 31.86460937 64.85773438 33.125 64.875 C34.35605469 64.88402344 35.58710938 64.89304687 36.85546875 64.90234375 C39.90383815 64.92597452 42.95182382 64.95891946 46 65 C46.66 66.32 47.32 67.64 48 69 C48.66 69 49.32 69 50 69 C51.5078125 70.4609375 51.5078125 70.4609375 53.125 72.375 C53.66382813 73.00148438 54.20265625 73.62796875 54.7578125 74.2734375 C56 76 56 76 56 78 C56.66 78 57.32 78 58 78 C59.60406253 79.75751978 61.13567377 81.58175224 62.625 83.4375 C63.44226563 84.44683594 64.25953125 85.45617187 65.1015625 86.49609375 C67 89 67 89 67 90 C64.69 90 62.38 90 60 90 C60.03665771 90.63502441 60.07331543 91.27004883 60.11108398 91.92431641 C60.25731315 94.82404347 60.3478416 97.72299535 60.4375 100.625 C60.52547852 102.12353516 60.52547852 102.12353516 60.61523438 103.65234375 C60.78350522 110.91202885 60.78350522 110.91202885 58.6171875 113.92016602 C56.8265948 115.4920998 55.03102975 116.75764655 53 118 C52.01257813 118.66386719 51.02515625 119.32773437 50.0078125 120.01171875 C44.13728244 123.42426265 38.59192083 126.3194744 32 128 C30.93845703 128.30550781 30.93845703 128.30550781 29.85546875 128.6171875 C21.45525568 130.70650796 12.59609189 130.3919745 4 130 C3 129 3 129 2.88647461 125.48999023 C2.88663374 123.92951578 2.89232858 122.36903607 2.90234375 120.80859375 C2.9037587 119.98875504 2.90517365 119.16891632 2.90663147 118.32423401 C2.91224711 115.69528618 2.92480221 113.06642227 2.9375 110.4375 C2.94251299 108.65950643 2.94707624 106.88151154 2.95117188 105.10351562 C2.96137248 100.73561842 2.98094468 96.3679036 3 92 C10.59 92 18.18 92 26 92 C26 91.67 26 91.34 26 91 C17.42 91 8.84 91 0 91 C-0.33 90.34 -0.66 89.68 -1 89 C-1.66 89.99 -2.32 90.98 -3 92 C-1.35 92.33 0.3 92.66 2 93 C2 104.88 2 116.76 2 129 C-7 128 -7 128 -11 127 C-11.495 126.01 -11.495 126.01 -12 125 C-13.66632671 124.66497135 -15.33306412 124.33198443 -17 124 C-18.88621262 123.10639005 -20.74072857 122.1435704 -22.5625 121.125 C-23.49191406 120.61195313 -24.42132813 120.09890625 -25.37890625 119.5703125 C-27.73161581 118.16079053 -29.9216321 116.78984154 -32 115 C-32 114.34 -32 113.68 -32 113 C-32.556875 112.79375 -33.11375 112.5875 -33.6875 112.375 C-36.90841947 110.45985869 -39.18098278 108.25297673 -41 105 C-41.66575254 101.65504472 -41.58472566 98.40720965 -41.48828125 95.0078125 C-41.47766914 93.58890213 -41.47766914 93.58890213 -41.46684265 92.1413269 C-41.4389669 89.13506288 -41.37624116 86.13069619 -41.3125 83.125 C-41.28740832 81.08075616 -41.26459667 79.03648298 -41.24414062 76.9921875 C-41.18916248 71.99406627 -41.10293701 66.99735425 -41 62 C-39.515 61.505 -39.515 61.505 -38 61 C-37.45627049 57.94152152 -37 55.11227195 -37 52 C-35.02 51.505 -35.02 51.505 -33 51 C-33 50.34 -33 49.68 -33 49 C-28.92630576 46.96315288 -26.41062136 46.9742741 -22 48 C-22 48.66 -22 49.32 -22 50 C-18.535 50.495 -18.535 50.495 -15 51 C-14.67 43.41 -14.34 35.82 -14 28 C-12.35 27.34 -10.7 26.68 -9 26 C-8.67 23.03 -8.34 20.06 -8 17 C-6 16.33333333 -4 15.66666667 -2 15 C-0.9458482 11.83754459 -0.68724328 9.13051782 -0.4375 5.8125 C-0.35371094 4.72582031 -0.26992187 3.63914063 -0.18359375 2.51953125 C-0.09271484 1.27236328 -0.09271484 1.27236328 0 0 Z M-12 61 C-11 63 -11 63 -11 63 Z M15 69 C16 71 16 71 16 71 Z M8 77 C9 79 9 79 9 79 Z M4 82 C3.67 82.66 3.34 83.32 3 84 C3.66 84 4.32 84 5 84 C4.67 83.34 4.34 82.68 4 82 Z M2 84 C1.34 85.32 0.68 86.64 0 88 C0.99 87.34 1.98 86.68 3 86 C2.67 85.34 2.34 84.68 2 84 Z M26 105 C27 108 27 108 27 108 Z " fill="#98AC7F" transform="translate(237,162)"/>
<path d="M0 0 C0 0.66 0 1.32 0 2 C0.58136719 2.25910156 1.16273438 2.51820313 1.76171875 2.78515625 C14.00935314 9.43265065 20.32739453 24.24731307 24.38183594 36.88867188 C28.03258093 49.35772508 28.93584949 61.0964051 26.3125 73.8125 C26.04566406 75.12190552 26.04566406 75.12190552 25.7734375 76.45776367 C23.70535262 86.08238112 20.14287192 94.61902353 15 103 C14.34 103 13.68 103 13 103 C12.814375 103.66 12.62875 104.32 12.4375 105 C8.92542791 112.32954176 2.97430273 117.01266756 -3.4375 121.75 C-4.36792114 122.43956787 -4.36792114 122.43956787 -5.31713867 123.14306641 C-22.15285212 135.24187735 -42.77746179 139.00770908 -63.08203125 135.74609375 C-78.26442022 132.85493095 -94.63352825 126.00782978 -105 114 C-105 113.34 -105 112.68 -105 112 C-105.66 112 -106.32 112 -107 112 C-111 107.52941176 -111 107.52941176 -111 105 C-111.66 105 -112.32 105 -113 105 C-124.61808986 84.4945679 -130.77012548 63.79342556 -124.96875 40.265625 C-121.94644254 30.07752406 -117.27631237 20.5900964 -111 12 C-110.34 12 -109.68 12 -109 12 C-108.74863281 11.42507812 -108.49726563 10.85015625 -108.23828125 10.2578125 C-106.83830319 7.70517112 -105.23840451 5.93766878 -103.1875 3.875 C-102.52105469 3.19179687 -101.85460937 2.50859375 -101.16796875 1.8046875 C-98.86864715 -0.10934237 -96.81865249 -1.04569183 -94 -2 C-94 -2.66 -94 -3.32 -94 -4 C-68.18417169 -25.16153234 -24.49101304 -19.91576885 0 0 Z M-80 -4 C-80.92554688 -3.59136719 -81.85109375 -3.18273437 -82.8046875 -2.76171875 C-98.92415522 5.15784582 -111.79237938 20.5092448 -117.625 37.375 C-122.62792006 55.58007021 -122.07934994 75.12451491 -113 92 C-110.78601693 95.7537294 -108.4525449 99.39840383 -106 103 C-105.34 103.99 -104.68 104.98 -104 106 C-103.34 106 -102.68 106 -102 106 C-101.34 107.32 -100.68 108.64 -100 110 C-99.34 110 -98.68 110 -98 110 C-98 110.66 -98 111.32 -98 112 C-97.34 112 -96.68 112 -96 112 C-96 112.66 -96 113.32 -96 114 C-79.50307964 127.26119 -59.06696287 131.77966245 -38.25390625 129.609375 C-25.57620811 127.51654864 -14.10473793 121.89107112 -4 114 C-4 113.34 -4 112.68 -4 112 C-3.41992188 111.75378906 -2.83984375 111.50757813 -2.2421875 111.25390625 C8.19177002 105.41888819 15.56495373 91.05759946 18.91015625 79.98828125 C23.29875952 62.41345607 22.50368604 43.04642974 13.78515625 26.9375 C2.57051142 8.48364242 -12.44919288 -3.59074426 -33.2109375 -9.32421875 C-49.24136013 -13.20834076 -65.0938956 -10.66852039 -80 -4 Z " fill="#9EB087" transform="translate(299,164)"/>
<path d="M0 0 C1.32 0.33 2.64 0.66 4 1 C4 1.99 4 2.98 4 4 C4.99 4 5.98 4 7 4 C8.39300182 5.95890881 9.72245446 7.9639118 11 10 C11.86625 10.86625 11.86625 10.86625 12.75 11.75 C14 13 14 13 14 15 C15.32 15.66 16.64 16.32 18 17 C18.20416594 20.87421701 18.32791537 24.74704592 18.4375 28.625 C18.49615234 29.71941406 18.55480469 30.81382812 18.61523438 31.94140625 C18.78355548 39.87654413 18.78355548 39.87654413 16.6171875 42.98266602 C14.82753958 44.55377039 13.04616372 45.78606321 11 47 C10.01257813 47.66386719 9.02515625 48.32773437 8.0078125 49.01171875 C2.13728244 52.42426265 -3.40807917 55.3194744 -10 57 C-10.70769531 57.20367187 -11.41539062 57.40734375 -12.14453125 57.6171875 C-20.54474432 59.70650796 -29.40390811 59.3919745 -38 59 C-39 58 -39 58 -39.11352539 54.48999023 C-39.11336626 52.92951578 -39.10767142 51.36903607 -39.09765625 49.80859375 C-39.0962413 48.98875504 -39.09482635 48.16891632 -39.09336853 47.32423401 C-39.08775289 44.69528618 -39.07519779 42.06642227 -39.0625 39.4375 C-39.05748701 37.65950643 -39.05292376 35.88151154 -39.04882812 34.10351562 C-39.03862752 29.73561842 -39.01905532 25.3679036 -39 21 C-31.41 21 -23.82 21 -16 21 C-15.34 19.35 -14.68 17.7 -14 16 C-13.01 15.67 -12.02 15.34 -11 15 C-11 14.34 -11 13.68 -11 13 C-9.3545622 11.31237149 -7.68711423 9.6459651 -6 8 C-5.67 7.34 -5.34 6.68 -5 6 C-4.34 6 -3.68 6 -3 6 C-2.67 4.68 -2.34 3.36 -2 2 C-1.34 2 -0.68 2 0 2 C0 1.34 0 0.68 0 0 Z M-16 34 C-15 37 -15 37 -15 37 Z " fill="#E8D9BB" transform="translate(279,233)"/>
<path d="M0 0 C0.763125 0.309375 1.52625 0.61875 2.3125 0.9375 C4.18789677 1.67893593 6.08684652 2.36228217 8 3 C8 5.97 8 8.94 8 12 C8.969375 12.144375 9.93875 12.28875 10.9375 12.4375 C14 13 14 13 15 14 C15.16017166 16.80976518 15.25950534 19.59773596 15.31640625 22.41015625 C15.33718735 23.25219101 15.35796844 24.09422577 15.37937927 24.96177673 C15.44496812 27.66193179 15.50380276 30.36218717 15.5625 33.0625 C15.60567637 34.88868241 15.64929036 36.71485454 15.69335938 38.54101562 C15.80065894 43.02723992 15.90189966 47.5135655 16 52 C16.66 51.34 17.32 50.68 18 50 C20.61376953 49.77294922 20.61376953 49.77294922 23.8828125 49.8046875 C25.63271484 49.81435547 25.63271484 49.81435547 27.41796875 49.82421875 C29.25294922 49.84935547 29.25294922 49.84935547 31.125 49.875 C32.35605469 49.88402344 33.58710938 49.89304688 34.85546875 49.90234375 C37.90383815 49.92597452 40.95182382 49.95891946 44 50 C44.66 51.32 45.32 52.64 46 54 C46.66 54 47.32 54 48 54 C49.5078125 55.4609375 49.5078125 55.4609375 51.125 57.375 C51.66382813 58.00148437 52.20265625 58.62796875 52.7578125 59.2734375 C54 61 54 61 54 63 C54.66 63 55.32 63 56 63 C57.60406253 64.75751978 59.13567377 66.58175224 60.625 68.4375 C61.85089844 69.95150391 61.85089844 69.95150391 63.1015625 71.49609375 C65 74 65 74 65 75 C61.9375 75.5 61.9375 75.5 58 75 C55.24554567 72.6512848 53.16431787 69.8875429 51 67 C50.195625 66.05125 49.39125 65.1025 48.5625 64.125 C47 62 47 62 47 60 C46.01 60 45.02 60 44 60 C44 59.01 44 58.02 44 57 C42.68 56.67 41.36 56.34 40 56 C40 56.66 40 57.32 40 58 C39.34 58 38.68 58 38 58 C37.76152344 58.556875 37.52304687 59.11375 37.27734375 59.6875 C35.71113111 62.52296753 33.76526991 64.62722978 31.5625 67 C28.38407989 70.36369967 28.38407989 70.36369967 25.73681641 74.12792969 C24 76 24 76 21.27270508 76.45410156 C20.19915771 76.4331543 19.12561035 76.41220703 18.01953125 76.390625 C16.85615234 76.37773437 15.69277344 76.36484375 14.49414062 76.3515625 C13.27919922 76.31804687 12.06425781 76.28453125 10.8125 76.25 C9.58595703 76.23195313 8.35941406 76.21390625 7.09570312 76.1953125 C4.06302241 76.14811124 1.03189913 76.08227677 -2 76 C-1.835 75.38125 -1.67 74.7625 -1.5 74.125 C-0.6864284 70.6673207 -1.00694297 67.10650158 -1.01586914 63.5625 C-1.03226594 56.82202616 -1.04346245 50.08155288 -1.05181217 43.34106445 C-1.05704258 39.25861543 -1.06414683 35.17618711 -1.07543945 31.09375 C-1.08628066 27.14924922 -1.09227909 23.20476843 -1.09487724 19.26025391 C-1.09672832 17.75471684 -1.10034288 16.24918091 -1.10573006 14.74365234 C-1.11295747 12.6415772 -1.11399026 10.53958551 -1.11352539 8.4375 C-1.115746 7.23996094 -1.11796661 6.04242188 -1.12025452 4.80859375 C-1 2 -1 2 0 0 Z M13 54 C14 56 14 56 14 56 Z M6 62 C7 64 7 64 7 64 Z M2 67 C1.67 67.66 1.34 68.32 1 69 C1.66 69 2.32 69 3 69 C2.67 68.34 2.34 67.68 2 67 Z " fill="#C0AE8B" transform="translate(239,177)"/>
<path d="M0 0 C0.66 0 1.32 0 2 0 C2 2.97 2 5.94 2 9 C2.66 9.33 3.32 9.66 4 10 C3.67526703 11.00993515 3.35053406 12.0198703 3.01596069 13.06040955 C1.9623491 16.76536779 1.74870969 20.16892596 1.74462891 24.03344727 C1.73919823 25.03001846 1.73919823 25.03001846 1.73365784 26.04672241 C1.72681244 27.47621357 1.7242492 28.9057306 1.72560501 30.3352375 C1.72657767 32.6017562 1.71354332 34.86781025 1.69662476 37.13426208 C1.65056346 43.57344051 1.62574029 50.01256649 1.61914062 56.4519043 C1.61411739 60.40240523 1.58983551 64.35241379 1.55381393 68.30274773 C1.54404285 69.80215431 1.54166929 71.30162882 1.54698563 72.80105782 C1.55408219 74.89988828 1.53672691 76.99725505 1.51416016 79.09594727 C1.5098851 80.88295799 1.5098851 80.88295799 1.50552368 82.70606995 C0.90094083 86.64545736 -0.59865935 88.86572221 -3 92 C-1.35 92.33 0.3 92.66 2 93 C2 104.88 2 116.76 2 129 C-7 128 -7 128 -11 127 C-10.99000725 125.78517441 -10.99000725 125.78517441 -10.97981262 124.54580688 C-10.91976882 116.9234852 -10.87406011 109.30127774 -10.84456348 101.67878151 C-10.82888929 97.75971028 -10.80761952 93.84083401 -10.77368164 89.921875 C-10.74114999 86.14175875 -10.7231602 82.36183033 -10.71536827 78.58158493 C-10.70981355 77.13742489 -10.69896679 75.69327544 -10.68280983 74.2491951 C-10.66112036 72.23084743 -10.65977533 70.21231183 -10.65942383 68.19384766 C-10.65276199 67.04357086 -10.64610016 65.89329407 -10.63923645 64.7081604 C-10.75828842 63.81446747 -10.87734039 62.92077454 -11 62 C-11.99 61.34 -12.98 60.68 -14 60 C-15.38475962 56.57774195 -15.02765858 53.12054301 -14.87890625 49.484375 C-14.83056641 48.23398438 -14.78222656 46.98359375 -14.73242188 45.6953125 C-14.67634766 44.39335937 -14.62027344 43.09140625 -14.5625 41.75 C-14.51029297 40.43257812 -14.45808594 39.11515625 -14.40429688 37.7578125 C-14.27465443 34.50496572 -14.13968844 31.25242833 -14 28 C-12.35 27.34 -10.7 26.68 -9 26 C-8.505 21.545 -8.505 21.545 -8 17 C-6 16.33333333 -4 15.66666667 -2 15 C-0.9458482 11.83754459 -0.68724328 9.13051782 -0.4375 5.8125 C-0.35371094 4.72582031 -0.26992187 3.63914063 -0.18359375 2.51953125 C-0.12300781 1.68808594 -0.06242188 0.85664063 0 0 Z " fill="#6A7478" transform="translate(237,162)"/>
<path d="M0 0 C0.33 1.65 0.66 3.3 1 5 C-3.00636678 5.95382741 -6.7267385 6.11848145 -10.84004211 6.10534668 C-11.84205904 6.10414054 -11.84205904 6.10414054 -12.86431873 6.10291004 C-15.07405856 6.09892487 -17.28369544 6.0876268 -19.4934082 6.07617188 C-21.06537683 6.07160412 -22.6373466 6.06741786 -24.20931721 6.063591 C-28.32654711 6.05196875 -32.44371453 6.03358446 -36.56090593 6.01249313 C-38.9070549 6.00047607 -41.25320641 5.98943301 -43.59936142 5.97866821 C-53.61495631 5.93163977 -63.63040432 5.86717627 -73.64586806 5.79807091 C-77.86842404 5.76919336 -82.09098893 5.74167534 -86.31355286 5.71398926 C-94.24557026 5.66178697 -102.17757943 5.60843048 -110.10958606 5.5546174 C-119.1670512 5.49322824 -128.22452516 5.43318958 -137.28199995 5.37324238 C-155.85467653 5.25028937 -174.42734189 5.12571184 -193 5 C-193.33 3.68 -193.66 2.36 -194 1 C-191.05191752 0.01730584 -189.1910207 -0.11605553 -186.12182617 -0.09765625 C-184.62218826 -0.09276184 -184.62218826 -0.09276184 -183.09225464 -0.08776855 C-182.0034903 -0.07942993 -180.91472595 -0.07109131 -179.79296875 -0.0625 C-177.44767292 -0.05392891 -175.10237667 -0.04547001 -172.75708008 -0.03710938 C-171.52245026 -0.03090576 -170.28782043 -0.02470215 -169.01577759 -0.01831055 C-151.10631952 0.0673499 -133.21362353 0.08272303 -115.3125 -0.5 C-76.87695117 -1.70914732 -38.43473303 -0.87304613 0 0 Z " fill="#8CA36F" transform="translate(346,357)"/>
<path d="M0 0 C0 22.77 0 45.54 0 69 C-4 68 -4 68 -6 67 C-6 66.34 -6 65.68 -6 65 C-6.556875 64.79375 -7.11375 64.5875 -7.6875 64.375 C-10.90841947 62.45985869 -13.18098278 60.25297673 -15 57 C-15.66575254 53.65504472 -15.58472566 50.40720965 -15.48828125 47.0078125 C-15.47766914 45.58890213 -15.47766914 45.58890213 -15.46684265 44.1413269 C-15.4389669 41.13506288 -15.37624116 38.13069619 -15.3125 35.125 C-15.28740832 33.08075616 -15.26459667 31.03648298 -15.24414062 28.9921875 C-15.18916248 23.99406627 -15.10293701 18.99735425 -15 14 C-14.01 13.67 -13.02 13.34 -12 13 C-11.45627049 9.94152152 -11 7.11227195 -11 4 C-9.68 3.67 -8.36 3.34 -7 3 C-7 2.34 -7 1.68 -7 1 C-4 0 -4 0 0 0 Z " fill="#626F74" transform="translate(211,210)"/>
<path d="M0 0 C7.59 0 15.18 0 23 0 C23.16595751 4.62638463 23.32846604 9.25262421 23.48217773 13.87939453 C23.53548564 15.45270683 23.59080589 17.02595231 23.64819336 18.59912109 C23.73041829 20.86280919 23.8053589 23.12664038 23.87890625 25.390625 C23.90594131 26.09181458 23.93297638 26.79300415 23.96083069 27.51544189 C24.06222717 30.84742537 24.05977883 33.81709523 23 37 C20.16821942 37.8040612 17.64753417 38.12824903 14.70703125 38.1328125 C13.91232422 38.13410156 13.11761719 38.13539063 12.29882812 38.13671875 C11.47833984 38.13285156 10.65785156 38.12898438 9.8125 38.125 C8.56436523 38.13080078 8.56436523 38.13080078 7.29101562 38.13671875 C1.12667092 38.12667092 1.12667092 38.12667092 0 37 C-0.08858646 34.26105915 -0.11523479 31.5474673 -0.09765625 28.80859375 C-0.0962413 27.98875504 -0.09482635 27.16891632 -0.09336853 26.32423401 C-0.08775289 23.69528618 -0.07519779 21.06642227 -0.0625 18.4375 C-0.05748701 16.65950643 -0.05292376 14.88151154 -0.04882812 13.10351562 C-0.03862752 8.73561842 -0.01905532 4.3679036 0 0 Z " fill="#97AC79" transform="translate(240,254)"/>
<path d="M0 0 C1.60246582 0.03927612 1.60246582 0.03927612 3.23730469 0.0793457 C4.97753906 0.10351562 4.97753906 0.10351562 6.75292969 0.12817383 C7.95949219 0.17006836 9.16605469 0.21196289 10.40917969 0.25512695 C12.24222656 0.28896484 12.24222656 0.28896484 14.11230469 0.32348633 C17.12916471 0.38240938 20.14355483 0.4646343 23.15917969 0.56762695 C23.81917969 1.88762695 24.47917969 3.20762695 25.15917969 4.56762695 C25.81917969 4.56762695 26.47917969 4.56762695 27.15917969 4.56762695 C28.66699219 6.02856445 28.66699219 6.02856445 30.28417969 7.94262695 C30.82300781 8.56911133 31.36183594 9.1955957 31.91699219 9.84106445 C33.15917969 11.56762695 33.15917969 11.56762695 33.15917969 13.56762695 C33.81917969 13.56762695 34.47917969 13.56762695 35.15917969 13.56762695 C36.76324222 15.32514673 38.29485346 17.14937919 39.78417969 19.00512695 C40.60144531 20.01446289 41.41871094 21.02379883 42.26074219 22.0637207 C44.15917969 24.56762695 44.15917969 24.56762695 44.15917969 25.56762695 C41.09667969 26.06762695 41.09667969 26.06762695 37.15917969 25.56762695 C34.40472536 23.21891175 32.32349756 20.45516985 30.15917969 17.56762695 C29.35480469 16.61887695 28.55042969 15.67012695 27.72167969 14.69262695 C26.15917969 12.56762695 26.15917969 12.56762695 26.15917969 10.56762695 C25.16917969 10.56762695 24.17917969 10.56762695 23.15917969 10.56762695 C23.15917969 9.57762695 23.15917969 8.58762695 23.15917969 7.56762695 C21.83917969 7.23762695 20.51917969 6.90762695 19.15917969 6.56762695 C19.15917969 7.22762695 19.15917969 7.88762695 19.15917969 8.56762695 C18.49917969 8.56762695 17.83917969 8.56762695 17.15917969 8.56762695 C16.92070312 9.12450195 16.68222656 9.68137695 16.43652344 10.25512695 C14.8703108 13.09059449 12.9244496 15.19485674 10.72167969 17.56762695 C7.54325958 20.93132662 7.54325958 20.93132662 4.89599609 24.69555664 C3.15917969 26.56762695 3.15917969 26.56762695 0.43188477 27.02172852 C-0.6416626 27.00078125 -1.71520996 26.97983398 -2.82128906 26.95825195 C-3.98466797 26.94536133 -5.14804688 26.9324707 -6.34667969 26.91918945 C-7.56162109 26.88567383 -8.7765625 26.8521582 -10.02832031 26.81762695 C-11.25486328 26.79958008 -12.48140625 26.7815332 -13.74511719 26.76293945 C-16.7777979 26.7157382 -19.80892118 26.64990373 -22.84082031 26.56762695 C-22.2280442 23.60587572 -21.58709509 22.18703913 -19.84082031 19.56762695 C-19.18082031 19.56762695 -18.52082031 19.56762695 -17.84082031 19.56762695 C-17.60105469 19.00946289 -17.36128906 18.45129883 -17.11425781 17.8762207 C-15.56377944 15.06538415 -13.64800158 12.98267785 -11.46582031 10.63012695 C-9.15012166 8.12468042 -6.98022416 5.77540084 -5.07763672 2.93969727 C-2.84082031 0.56762695 -2.84082031 0.56762695 0 0 Z " fill="#657175" transform="translate(259.8408203125,226.432373046875)"/>
<path d="M0 0 C2.64 0 5.28 0 8 0 C8.33 9.9 8.66 19.8 9 30 C9.99 30.33 10.98 30.66 12 31 C12 31.99 12 32.98 12 34 C7.98228475 37.34286464 4.01440094 37.45826496 -1 37.375 C-1.69867188 37.38660156 -2.39734375 37.39820313 -3.1171875 37.41015625 C-7.55351187 37.38504498 -10.50953442 36.79509939 -14 34 C-14 33.34 -14 32.68 -14 32 C-14.99 31.67 -15.98 31.34 -17 31 C-17.3495802 24.56513481 -17.36655771 19.61092951 -14 14 C-9.84966227 10.41561741 -6.42244184 9.43379535 -1 9 C-1.020625 7.88625 -1.04125 6.7725 -1.0625 5.625 C-1 2 -1 2 0 0 Z M-4 16 C-6.97791641 17.89385913 -6.97791641 17.89385913 -9 21 C-9 24.61761264 -8.67375271 26.92199567 -6.75 30 C-4.59153914 31.48751781 -4.59153914 31.48751781 0 30 C0 25.71 0 21.42 0 17 C-1.32 16.67 -2.64 16.34 -4 16 Z " fill="#525758" transform="translate(280,314)"/>
<path d="M0 0 C3.5625 0.25 3.5625 0.25 7 1 C8.31625194 3.63250388 7.74813658 4.80179056 7.0625 7.625 C6.86785156 8.44226563 6.67320312 9.25953125 6.47265625 10.1015625 C6.31667969 10.72804688 6.16070312 11.35453125 6 12 C6.66 11.67 7.32 11.34 8 11 C9.953125 10.7265625 9.953125 10.7265625 12.25 10.625 C12.99765625 10.57601563 13.7453125 10.52703125 14.515625 10.4765625 C18.28617578 11.27098672 20.86949273 12.83034826 23 16 C23.72758452 19.63344976 23.5681285 23.12572649 23.375 26.8125 C23.34792969 27.79154297 23.32085937 28.77058594 23.29296875 29.77929688 C23.22245648 32.18846621 23.12398568 34.59308819 23 37 C16.84765625 37.87890625 16.84765625 37.87890625 15 38 C13.48578999 36.48578999 13.78690144 35.07527232 13.68359375 32.96484375 C13.64169922 32.15595703 13.59980469 31.34707031 13.55664062 30.51367188 C13.51732422 29.66353516 13.47800781 28.81339844 13.4375 27.9375 C13.39431641 27.08349609 13.35113281 26.22949219 13.30664062 25.34960938 C13.20023298 23.23327963 13.09958269 21.11666187 13 19 C11.35 18.67 9.7 18.34 8 18 C6.84683274 24.34241995 6.90492937 30.56688704 7 37 C4.36 37.33 1.72 37.66 -1 38 C-3.41666707 34.26138528 -3.17931511 31.04644253 -3.046875 26.6796875 C-3.02659241 25.9798172 -3.00630981 25.2799469 -2.9854126 24.55886841 C-2.93996094 23.08448672 -2.889211 21.61026 -2.83349609 20.13623047 C-2.7500437 17.87618342 -2.68833616 15.61626108 -2.62890625 13.35546875 C-2.58202777 11.92183195 -2.533894 10.48823553 -2.484375 9.0546875 C-2.44022461 7.74999512 -2.39607422 6.44530273 -2.35058594 5.10107422 C-2 2 -2 2 0 0 Z " fill="#919493" transform="translate(296,313)"/>
<path d="M0 0 C2.05078125 0.03255208 4.1015625 0.06510417 6.15234375 0.09765625 C11.52364216 13.73091365 11.52364216 13.73091365 13.15234375 20.09765625 C13.81234375 20.09765625 14.47234375 20.09765625 15.15234375 20.09765625 C15.49007812 19.21722656 15.8278125 18.33679688 16.17578125 17.4296875 C16.62179688 16.26824219 17.0678125 15.10679687 17.52734375 13.91015625 C17.96820313 12.76160156 18.4090625 11.61304688 18.86328125 10.4296875 C19.28867188 9.33011719 19.7140625 8.23054688 20.15234375 7.09765625 C20.49523437 6.17339844 20.838125 5.24914062 21.19140625 4.296875 C22.15234375 2.09765625 22.15234375 2.09765625 24.15234375 0.09765625 C26.77734375 -0.02734375 26.77734375 -0.02734375 29.15234375 0.09765625 C28.82936861 1.76636112 28.49221042 3.43230958 28.15234375 5.09765625 C27.93384766 6.23654297 27.93384766 6.23654297 27.7109375 7.3984375 C27.46537109 8.61080078 27.46537109 8.61080078 27.21484375 9.84765625 C27.06144531 10.62625 26.90804687 11.40484375 26.75 12.20703125 C26.45416016 13.14289063 26.45416016 13.14289063 26.15234375 14.09765625 C25.16234375 14.59265625 25.16234375 14.59265625 24.15234375 15.09765625 C23.56965013 16.91294259 23.56965013 16.91294259 23.21484375 19.09765625 C22.52934591 22.45016914 21.74258022 25.70745185 20.71484375 28.97265625 C20.48925781 29.69195312 20.26367188 30.41125 20.03125 31.15234375 C19.02334644 33.3831703 18.11390629 34.62883071 16.15234375 36.09765625 C12.46484375 35.78515625 12.46484375 35.78515625 9.15234375 35.09765625 C6.27838214 27.78558577 3.52405825 20.44098049 0.90234375 13.03515625 C0.64437012 12.30949463 0.38639648 11.58383301 0.12060547 10.83618164 C-2.26886872 4.04374754 -2.26886872 4.04374754 -2.84765625 1.09765625 C-1.84765625 0.09765625 -1.84765625 0.09765625 0 0 Z " fill="#595F5E" transform="translate(155.84765625,314.90234375)"/>
<path d="M0 0 C1.4724326 4.60984667 0.92649275 9.22823202 0.7421875 14.00390625 C0.72336507 17.01030258 0.72336507 17.01030258 2.5078125 18.90234375 C3.00023437 19.26457031 3.49265625 19.62679688 4 20 C5.32 19.34 6.64 18.68 8 18 C8 12.39 8 6.78 8 1 C10.70879335 -0.35439668 13.00933268 -0.06501451 16 0 C16.0501123 0.59014893 16.10022461 1.18029785 16.15185547 1.78833008 C16.38405648 4.46390702 16.62937528 7.13812341 16.875 9.8125 C16.95363281 10.74126953 17.03226562 11.67003906 17.11328125 12.62695312 C17.23896484 13.9659668 17.23896484 13.9659668 17.3671875 15.33203125 C17.44050293 16.15421143 17.51381836 16.9763916 17.58935547 17.82348633 C17.90664263 20.28335387 17.90664263 20.28335387 20 23 C18.625 25.0625 18.625 25.0625 16 27 C13.30774713 27.00856042 10.80164182 26.68576714 8.14453125 26.26171875 C7.43683594 26.17535156 6.72914063 26.08898437 6 26 C5.67 26.33 5.34 26.66 5 27 C0.91536705 27.39275317 -1.32767657 27.40924035 -4.875 25.25 C-8.67477584 21.22670793 -8.08969612 17.24555517 -8 11.875 C-7.73561436 7.27274665 -7.73561436 7.27274665 -9 3 C-6.38997624 -0.48003168 -4.1689578 -0.27793052 0 0 Z " fill="#505858" transform="translate(243,324)"/>
<path d="M0 0 C1.56041016 -0.00773437 1.56041016 -0.00773437 3.15234375 -0.015625 C6.10263914 0.25366371 7.7375779 0.41678556 10.0625 2.25 C10.890625 4.82421875 10.890625 4.82421875 11.3125 7.9375 C11.53292969 9.54431641 11.53292969 9.54431641 11.7578125 11.18359375 C12.09626729 14.58983746 12.21779712 17.83346339 12.0625 21.25 C12.7225 21.25 13.3825 21.25 14.0625 21.25 C13.7325 22.9 13.4025 24.55 13.0625 26.25 C9.05230464 27.3115223 6.11252539 26.97000451 2.0625 26.25 C1.4025 26.58 0.7425 26.91 0.0625 27.25 C-3.59296065 27.65616229 -5.52667682 27.46434253 -8.8125 25.75 C-11.3998253 22.70608788 -11.63014186 21.04529029 -11.34765625 17.1484375 C-10.67710724 14.04475352 -9.58465293 12.97064941 -6.9375 11.25 C-4.29425366 10.44932732 -1.63216001 9.86844656 1.0625 9.25 C1.3925 8.59 1.7225 7.93 2.0625 7.25 C-1.5675 7.25 -5.1975 7.25 -8.9375 7.25 C-8.9375 5.6 -8.9375 3.95 -8.9375 2.25 C-5.48666005 -0.05055997 -4.06574272 -0.02010256 0 0 Z M-1.9375 17.25 C-1.9375 18.57 -1.9375 19.89 -1.9375 21.25 C0.81891416 20.75243908 0.81891416 20.75243908 3.0625 19.25 C3.10313832 17.58382885 3.105221 15.91611905 3.0625 14.25 C0.92343692 14.25 -0.44519333 15.9021101 -1.9375 17.25 Z " fill="#535959" transform="translate(332.9375,323.75)"/>
<path d="M0 0 C-0.66 0.33 -1.32 0.66 -2 1 C-2 2.32 -2 3.64 -2 5 C-34.34 5 -66.68 5 -100 5 C-100.33 3.68 -100.66 2.36 -101 1 C-98.05191752 0.01730584 -96.1910207 -0.11605553 -93.12182617 -0.09765625 C-92.12227402 -0.09438828 -91.12272186 -0.0911203 -90.09288025 -0.0877533 C-89.00390945 -0.07941971 -87.91493866 -0.07108612 -86.79296875 -0.0625 C-84.44433627 -0.05402434 -82.09570344 -0.04564617 -79.74707031 -0.03735352 C-77.89450623 -0.0280632 -77.89450623 -0.0280632 -76.0045166 -0.01858521 C-55.66344507 0.08045628 -35.35323472 0.00457381 -15.02416992 -0.73242188 C-13.93011086 -0.76951515 -13.93011086 -0.76951515 -12.81394958 -0.80735779 C-10.89367704 -0.87342541 -8.97367478 -0.9472274 -7.05371094 -1.02172852 C-4.45498903 -1.00323745 -2.45532708 -0.78921228 0 0 Z " fill="#69A59F" transform="translate(253,357)"/>
<path d="M0 0 C2.92306455 1.63691615 4.49656989 2.56346057 5.61328125 5.75 C6.10531078 8.61271727 6.09405723 11.34673514 6.0625 14.25 C6.05347656 15.32765625 6.04445312 16.4053125 6.03515625 17.515625 C6.02355469 18.33546875 6.01195312 19.1553125 6 20 C6.66 20.33 7.32 20.66 8 21 C8 22.65 8 24.3 8 26 C3.63686411 26.76996516 0.30728348 27.01347847 -4 26 C-4.33 26.33 -4.66 26.66 -5 27 C-8.95397022 27.38018944 -11.37159844 27.3208859 -14.9375 25.5 C-17.43885167 22.46805858 -17.72969131 20.75357945 -17.5 16.90625 C-17 15 -17 15 -14.625 12.5 C-12 11 -12 11 -10 11 C-10 10.34 -10 9.68 -10 9 C-8.02 9 -6.04 9 -4 9 C-4 8.34 -4 7.68 -4 7 C-7.3 7 -10.6 7 -14 7 C-14.66 5.35 -15.32 3.7 -16 2 C-10.65083305 -0.42262996 -5.79890834 -0.71397971 0 0 Z M-9 17 C-8.67 18.32 -8.34 19.64 -8 21 C-6.35 20.67 -4.7 20.34 -3 20 C-3 18.02 -3 16.04 -3 14 C-5.15518172 14 -7.2161657 15.90225582 -9 17 Z " fill="#4A5050" transform="translate(202,324)"/>
<path d="M0 0 C0.99 0.66 1.98 1.32 3 2 C2.67 3.65 2.34 5.3 2 7 C-0.64 7 -3.28 7 -6 7 C-4.49079343 10.01841313 -1.99339947 10.56086564 1 12 C2.67623498 12.98387706 4.34634594 13.97862543 6 15 C5.49572053 19.41244536 3.98672249 21.74974317 1 25 C-2.22747055 27.15164703 -3.20505639 27.27245079 -6.9375 27.25 C-7.79214844 27.25515625 -8.64679688 27.2603125 -9.52734375 27.265625 C-12.11974567 26.98713633 -13.76514234 26.30669172 -16 25 C-16 23.02 -16 21.04 -16 19 C-10.06 19.99 -10.06 19.99 -4 21 C-4 20.01 -4 19.02 -4 18 C-5.32 18.33 -6.64 18.66 -8 19 C-8 18.01 -8 17.02 -8 16 C-8.86625 15.87625 -8.86625 15.87625 -9.75 15.75 C-12.84461361 14.71846213 -14.08928472 13.66135342 -16 11 C-16.66269671 7.98442596 -16.45378611 6.17650274 -16 3 C-12.09882765 -1.30474191 -5.40431802 -0.64416794 0 0 Z " fill="#565C5C" transform="translate(228,324)"/>
<path d="M0 0 C2.125 0 2.125 0 5 1 C8.39246277 4.54666562 11.07872717 8.1194475 12 13 C12.66 12.67 13.32 12.34 14 12 C15.70702735 11.93003986 17.41668003 11.91559846 19.125 11.9375 C20.03507812 11.94652344 20.94515625 11.95554688 21.8828125 11.96484375 C22.93082031 11.98224609 22.93082031 11.98224609 24 12 C23.67641073 15.55948201 23.3899006 17.53463476 21.0625 20.3125 C17.0218657 23.61847352 14.08084504 23.08194911 9 23 C8.67 21.35 8.34 19.7 8 18 C7.01 18.33 6.02 18.66 5 19 C2.21416642 18.12942701 1.08043619 17.10054524 -0.75 14.8125 C-2.73177438 10.35350764 -2.55986899 6.64461517 -1 2.0625 C-0.505 1.0415625 -0.505 1.0415625 0 0 Z " fill="#93A978" transform="translate(301,148)"/>
<path d="M0 0 C1.98 0 3.96 0 6 0 C7.70271281 2.7243405 8.18972259 5.04523601 8.5 8.1875 C8.665 9.445625 8.83 10.70375 9 12 C9.66 12.33 10.32 12.66 11 13 C10.67 13.66 10.34 14.32 10 15 C10.66 15 11.32 15 12 15 C12 15.66 12 16.32 12 17 C12.99 17.33 13.98 17.66 15 18 C14.36191406 17.91621094 13.72382813 17.83242188 13.06640625 17.74609375 C12.24011719 17.64425781 11.41382813 17.54242188 10.5625 17.4375 C9.73878906 17.33308594 8.91507813 17.22867187 8.06640625 17.12109375 C7.38449219 17.08113281 6.70257813 17.04117187 6 17 C5.67 17.33 5.34 17.66 5 18 C1.04602978 18.38018944 -1.37159844 18.3208859 -4.9375 16.5 C-7.43885167 13.46805858 -7.72969131 11.75357945 -7.5 7.90625 C-7 6 -7 6 -4.625 3.5 C-2 2 -2 2 0 2 C0 1.34 0 0.68 0 0 Z M1 8 C1.33 9.32 1.66 10.64 2 12 C3.65 11.67 5.3 11.34 7 11 C7 9.02 7 7.04 7 5 C4.84481828 5 2.7838343 6.90225582 1 8 Z " fill="#585C5E" transform="translate(192,333)"/>
<path d="M0 0 C10.05859375 -0.09765625 10.05859375 -0.09765625 13 0 C14 1 14 1 14.09765625 3.72265625 C14.08605469 4.82480469 14.07445312 5.92695313 14.0625 7.0625 C14.05347656 8.16722656 14.04445313 9.27195312 14.03515625 10.41015625 C14.02355469 11.26480469 14.01195312 12.11945313 14 13 C8.80451575 15.20808081 5.41735797 14.93402724 0 14 C0 9.38 0 4.76 0 0 Z " fill="#D1CAB4" transform="translate(274,257)"/>
<path d="M0 0 C3.3 0.33 6.6 0.66 10 1 C9.67 1.99 9.34 2.98 9 4 C10.32 4.33 11.64 4.66 13 5 C13.84023188 9.35332736 14.10770995 13.44442519 14.0625 17.875 C14.05347656 19.02742188 14.04445313 20.17984375 14.03515625 21.3671875 C14.02355469 22.23601562 14.01195312 23.10484375 14 24 C7.84765625 24.87890625 7.84765625 24.87890625 6 25 C4.41596476 23.41596476 4.78025065 21.7228362 4.68359375 19.52734375 C4.62075195 18.17866211 4.62075195 18.17866211 4.55664062 16.80273438 C4.51732422 15.85720703 4.47800781 14.91167969 4.4375 13.9375 C4.39431641 12.98810547 4.35113281 12.03871094 4.30664062 11.06054688 C4.20020724 8.70718647 4.09818992 6.35371646 4 4 C3.34 3.67 2.68 3.34 2 3 C2.33 2.67 2.66 2.34 3 2 C2.01 1.34 1.02 0.68 0 0 Z " fill="#454A48" transform="translate(305,326)"/>
<path d="M0 0 C3.5 0.3125 3.5 0.3125 7 1 C8.38100027 3.76200055 7.71324759 5.36929657 7.125 8.375 C6.94195312 9.33148438 6.75890625 10.28796875 6.5703125 11.2734375 C6.22243031 12.93660028 5.84017309 14.59364282 5.3984375 16.234375 C4.85107678 18.02400249 4.85107678 18.02400249 5.5 19.875 C6.17990599 22.76460047 5.58857238 25.12253502 5 28 C3.02 28.66 1.04 29.32 -1 30 C-1.02465746 25.8882744 -1.04283959 21.77657722 -1.05493164 17.66479492 C-1.0599708 16.26504772 -1.06680216 14.8653058 -1.07543945 13.46557617 C-1.0875232 11.45754223 -1.09269807 9.44947043 -1.09765625 7.44140625 C-1.10289307 6.23170166 -1.10812988 5.02199707 -1.11352539 3.77563477 C-1 1 -1 1 0 0 Z " fill="#3E4544" transform="translate(296,313)"/>
<path d="M0 0 C5.93333307 0.40919538 9.38048494 1.18890008 14 5 C14 5.66 14 6.32 14 7 C14.57363281 7.25007812 15.14726562 7.50015625 15.73828125 7.7578125 C18.31489181 9.17294576 20.10491296 10.80413484 22.1875 12.875 C23.22970703 13.89207031 23.22970703 13.89207031 24.29296875 14.9296875 C26.0254452 17.03086032 26.60055703 18.34102145 27 21 C26.01 21 25.02 21 24 21 C24.33 21.99 24.66 22.98 25 24 C24.34 24 23.68 24 23 24 C23 23.34 23 22.68 23 22 C22.4121875 21.91492188 21.824375 21.82984375 21.21875 21.7421875 C18.3726455 20.7901455 17.37070174 19.44637079 15.5 17.125 C13.7064077 14.9156204 12.16541409 13.12043836 9.859375 11.44140625 C7.23209458 9.40471197 6.83693069 7.13849009 6 4 C3.03 3.505 3.03 3.505 0 3 C0 2.01 0 1.02 0 0 Z " fill="#9DAF88" transform="translate(285,159)"/>
<path d="M0 0 C1.32 0 2.64 0 4 0 C4.07405887 4.66305038 4.12855763 9.32575984 4.16479492 13.98925781 C4.17989814 15.57623251 4.20038223 17.16316537 4.22631836 18.75 C4.26263595 21.02875073 4.27971023 23.30695058 4.29296875 25.5859375 C4.30845261 26.29744965 4.32393646 27.00896179 4.33988953 27.74203491 C4.34057617 29.74365234 4.34057617 29.74365234 4 33 C3.01 33.66 2.02 34.32 1 35 C1 33.35 1 31.7 1 30 C0.01 29.67 -0.98 29.34 -2 29 C-2.05874776 25.66674246 -2.09384467 22.33362062 -2.125 19 C-2.14175781 18.06542969 -2.15851563 17.13085938 -2.17578125 16.16796875 C-2.21606145 10.40790037 -1.65416655 5.5225718 0 0 Z " fill="#9BAD82" transform="translate(175,209)"/>
<path d="M0 0 C0.99 0 1.98 0 3 0 C3.04939662 3.95096978 3.08571755 7.9018203 3.10986328 11.85302734 C3.12488107 13.8591136 3.15028981 15.86511324 3.17578125 17.87109375 C3.18222656 19.12792969 3.18867188 20.38476562 3.1953125 21.6796875 C3.20578613 22.84226074 3.21625977 24.00483398 3.22705078 25.20263672 C3 28 3 28 1 30 C0.87625 29.1028125 0.87625 29.1028125 0.75 28.1875 C-0.20455872 25.4033704 -1.57132271 24.56688858 -4 23 C-3.67 20.36 -3.34 17.72 -3 15 C-4.134375 14.87625 -5.26875 14.7525 -6.4375 14.625 C-8.2009375 14.315625 -8.2009375 14.315625 -10 14 C-10.33 13.34 -10.66 12.68 -11 12 C-10.34 12 -9.68 12 -9 12 C-9 11.34 -9 10.68 -9 10 C-6 8 -6 8 -3 7 C-2.67 6.01 -2.34 5.02 -2 4 C-2 4.66 -2 5.32 -2 6 C-1.34 6 -0.68 6 0 6 C0 4.02 0 2.04 0 0 Z " fill="#454B4B" transform="translate(284,315)"/>
<path d="M0 0 C0.0501123 0.59014893 0.10022461 1.18029785 0.15185547 1.78833008 C0.38405648 4.46390702 0.62937528 7.13812341 0.875 9.8125 C0.95363281 10.74126953 1.03226562 11.67003906 1.11328125 12.62695312 C1.19707031 13.51962891 1.28085937 14.41230469 1.3671875 15.33203125 C1.44050293 16.15421143 1.51381836 16.9763916 1.58935547 17.82348633 C1.90664263 20.28335387 1.90664263 20.28335387 4 23 C2.3125 25.0625 2.3125 25.0625 0 27 C-2.75 26.75 -2.75 26.75 -5 26 C-4.34 25.34 -3.68 24.68 -3 24 C-3.32742187 23.34644531 -3.65484375 22.69289063 -3.9921875 22.01953125 C-5.2653013 18.2051244 -5.21718944 14.65519163 -5.125 10.6875 C-5.11597656 9.94693359 -5.10695312 9.20636719 -5.09765625 8.44335938 C-5.07424213 6.62876533 -5.03837615 4.81433929 -5 3 C-5.66 3 -6.32 3 -7 3 C-7 7.95 -7 12.9 -7 18 C-7.33 18 -7.66 18 -8 18 C-8 12.39 -8 6.78 -8 1 C-5.29120665 -0.35439668 -2.99066732 -0.06501451 0 0 Z " fill="#616565" transform="translate(259,324)"/>
<path d="M0 0 C0.33 0 0.66 0 1 0 C1 21.45 1 42.9 1 65 C-3 64 -3 64 -5 63 C-5 62.34 -5 61.68 -5 61 C-5.598125 60.7525 -6.19625 60.505 -6.8125 60.25 C-9.28647521 58.83629988 -10.43370255 57.34944617 -12 55 C-11.34 54.01 -10.68 53.02 -10 52 C-9.34 52.33 -8.68 52.66 -8 53 C-7.505 52.505 -7.505 52.505 -7 52 C-5.00577205 51.63371323 -3.00546689 51.29868656 -1 51 C-1.00222061 50.39056549 -1.00444122 49.78113098 -1.00672913 49.15322876 C-1.0288021 42.82709335 -1.04391505 36.50096882 -1.05493164 30.17480469 C-1.05996959 27.81184444 -1.06680008 25.44888732 -1.07543945 23.0859375 C-1.08752854 19.69530465 -1.09323359 16.30471291 -1.09765625 12.9140625 C-1.10281754 11.85256989 -1.10797882 10.79107727 -1.11329651 9.69741821 C-1.11337204 8.71655243 -1.11344757 7.73568665 -1.11352539 6.72509766 C-1.115746 5.85905914 -1.11796661 4.99302063 -1.12025452 4.10073853 C-1 2 -1 2 0 0 Z " fill="#6D7B72" transform="translate(210,214)"/>
<path d="M0 0 C10.56 0 21.12 0 32 0 C32.495 2.475 32.495 2.475 33 5 C28.22049727 6.20950681 23.52305788 6.21967147 18.625 6.25 C17.8 6.270625 16.975 6.29125 16.125 6.3125 C10.63790196 6.34733872 6.89132454 5.504991 2 3 C2 2.34 2 1.68 2 1 C1.34 0.67 0.68 0.34 0 0 Z " fill="#8FA173" transform="translate(314,357)"/>
<path d="M0 0 C17.49 0 34.98 0 53 0 C53 0.66 53 1.32 53 2 C53.66 2.33 54.32 2.66 55 3 C54 4 54 4 51.13256836 4.11352539 C49.88096924 4.10828857 48.62937012 4.10305176 47.33984375 4.09765625 C46.34314415 4.09553383 46.34314415 4.09553383 45.3263092 4.09336853 C43.19666101 4.08775518 41.06711661 4.07520054 38.9375 4.0625 C37.49674631 4.05748671 36.05599097 4.05292351 34.61523438 4.04882812 C31.07678898 4.03778145 27.53840461 4.02050792 24 4 C24 3.34 24 2.68 24 2 C22.68644531 2.01160156 21.37289062 2.02320313 20.01953125 2.03515625 C18.28385559 2.04453828 16.54817839 2.05363804 14.8125 2.0625 C13.51602539 2.07506836 13.51602539 2.07506836 12.19335938 2.08789062 C7.99713231 2.10396812 4.09063114 2.07559038 0 1 C0 0.67 0 0.34 0 0 Z " fill="#88BAB4" transform="translate(159,357)"/>
<path d="M0 0 C2.64 0 5.28 0 8 0 C8.33 9.9 8.66 19.8 9 30 C9.99 30.33 10.98 30.66 12 31 C12 31.99 12 32.98 12 34 C9.69213605 36.01938095 8.0000797 37.01663719 4.88671875 36.96484375 C2.91392279 36.71605421 0.95473825 36.36444272 -1 36 C0.32 35.01 1.64 34.02 3 33 C1.0745356 30.7763932 1.0745356 30.7763932 -2 30 C-1.33333333 28 -0.66666667 26 0 24 C4.875 26.75 4.875 26.75 6 29 C6.33 19.76 6.66 10.52 7 1 C6.01 2.98 5.02 4.96 4 7 C1.3125 7.875 1.3125 7.875 -1 8 C-1.125 2.25 -1.125 2.25 0 0 Z " fill="#5B6361" transform="translate(280,314)"/>
<path d="M0 0 C0.99 0 1.98 0 3 0 C3.33 0.99 3.66 1.98 4 3 C3.10345673 4.69347062 2.19312297 6.38216359 1.19140625 8.015625 C-0.74535229 11.24143922 -2.34170902 14.62419337 -4 18 C-5.65 17.67 -7.3 17.34 -9 17 C-9.18451025 6.44191344 -9.18451025 6.44191344 -8 2 C-5.36 2 -2.72 2 0 2 C0 1.34 0 0.68 0 0 Z " fill="#CDE1E0" transform="translate(307,252)"/>
<path d="M0 0 C0.80308594 -0.02578125 1.60617187 -0.0515625 2.43359375 -0.078125 C5.08854782 0.33107893 5.79655586 1.29947978 7.5625 3.25 C10.16861077 3.97197162 10.16861077 3.97197162 12.5625 4.25 C12.5625 4.58 12.5625 4.91 12.5625 5.25 C4.45108662 6.01745541 -3.48624522 6.38213926 -11.625 5.9375 C-12.70189087 5.88541382 -12.70189087 5.88541382 -13.80053711 5.83227539 C-18.83841463 5.50607327 -21.86727021 4.82022979 -25.4375 1.25 C-24.83164062 1.26160156 -24.22578125 1.27320313 -23.6015625 1.28515625 C-19.17037851 1.33287669 -14.84352153 1.24655163 -10.4375 0.75 C-6.95607383 0.37600793 -3.50090123 0.10162268 0 0 Z " fill="#8BA06D" transform="translate(309.4375,356.75)"/>
<path d="M0 0 C2.06670774 0.73832605 4.12822191 1.49119831 6.1875 2.25 C7.33605469 2.66765625 8.48460937 3.0853125 9.66796875 3.515625 C12.95352565 4.9792963 15.31361168 6.63233572 18 9 C15.69 8.67 13.38 8.34 11 8 C11 8.99 11 9.98 11 11 C11.928125 11.0825 12.85625 11.165 13.8125 11.25 C17 12 17 12 18.875 14.0625 C19.24625 14.701875 19.6175 15.34125 20 16 C16.02069814 16 13.4821753 14.1705634 10.125 12.25 C3.27294163 8.4415284 -3.38331375 5.95233779 -11 4 C-7.2578125 1.9296875 -7.2578125 1.9296875 -4.9375 2.5625 C-4.298125 2.706875 -3.65875 2.85125 -3 3 C-1.36966707 1.56768 -1.36966707 1.56768 0 0 Z " fill="#A2B78C" transform="translate(274,151)"/>
<path d="M0 0 C0.875 2.0625 0.875 2.0625 1 5 C-1.69983275 9.3197324 -5.70493392 13.3155837 -10 16 C-13.1875 16.375 -13.1875 16.375 -16 16 C-16.66 15.34 -17.32 14.68 -18 14 C-17.34 14 -16.68 14 -16 14 C-15.67 12.68 -15.34 11.36 -15 10 C-14.34 10 -13.68 10 -13 10 C-13 9.34 -13 8.68 -13 8 C-11.35546875 6.30859375 -11.35546875 6.30859375 -9.1875 4.4375 C-8.47980469 3.81746094 -7.77210938 3.19742187 -7.04296875 2.55859375 C-4.72351698 0.78906936 -2.94246453 0 0 0 Z M-19 16 C-18.01 16.33 -17.02 16.66 -16 17 C-16.99 17 -17.98 17 -19 17 C-19 16.67 -19 16.34 -19 16 Z " fill="#9BAD81" transform="translate(308,268)"/>
<path d="M0 0 C0.82020418 2.88711871 1.16181621 5.50013311 1.1875 8.5 C1.20167969 9.2528125 1.21585938 10.005625 1.23046875 10.78125 C0.97417278 13.24864173 0.22845153 14.86356256 -1 17 C-1.66 16.34 -2.32 15.68 -3 15 C-3.66 15.66 -4.32 16.32 -5 17 C-5.99 16.67 -6.98 16.34 -8 16 C-7.98259766 14.84371094 -7.98259766 14.84371094 -7.96484375 13.6640625 C-7.95582031 12.66117187 -7.94679687 11.65828125 -7.9375 10.625 C-7.92589844 9.62726563 -7.91429687 8.62953125 -7.90234375 7.6015625 C-7.81993398 5.01567547 -7.81993398 5.01567547 -9 3 C-6.38997624 -0.48003168 -4.1689578 -0.27793052 0 0 Z " fill="#727776" transform="translate(243,324)"/>
<path d="M0 0 C-0.99 0 -1.98 0 -3 0 C-3.66 1.32 -4.32 2.64 -5 4 C-15.56 4 -26.12 4 -37 4 C-33.26254854 0.26254854 -30.87630566 -0.27717365 -25.72265625 -0.44921875 C-23.86930664 -0.51399414 -23.86930664 -0.51399414 -21.97851562 -0.58007812 C-20.04008789 -0.63325195 -20.04008789 -0.63325195 -18.0625 -0.6875 C-16.77408203 -0.73455078 -15.48566406 -0.78160156 -14.15820312 -0.83007812 C-3.69557099 -1.16265789 -3.69557099 -1.16265789 0 0 Z " fill="#72AEA5" transform="translate(253,357)"/>
<path d="M0 0 C3.22496917 1.80598274 4.562675 2.78894616 5.8125 6.25 C5.874375 6.8275 5.93625 7.405 6 8 C5.01 8.33 4.02 8.66 3 9 C2.67 7.68 2.34 6.36 2 5 C0.35 6.65 -1.3 8.3 -3 10 C-3.33 9.01 -3.66 8.02 -4 7 C-7.3 7 -10.6 7 -14 7 C-14.66 5.35 -15.32 3.7 -16 2 C-10.65083305 -0.42262996 -5.79890834 -0.71397971 0 0 Z " fill="#687070" transform="translate(202,324)"/>
<path d="M0 0 C2.3984375 0.1796875 2.3984375 0.1796875 5 1 C6.4765625 2.8203125 6.4765625 2.8203125 7.625 5.125 C8.03363281 5.93453125 8.44226563 6.7440625 8.86328125 7.578125 C9.23839844 8.37734375 9.61351562 9.1765625 10 10 C10.48533203 11.01320312 10.48533203 11.01320312 10.98046875 12.046875 C12.26533594 14.86996347 13 16.86667938 13 20 C12.34 20 11.68 20 11 20 C11 18.35 11 16.7 11 15 C10.34 15 9.68 15 9 15 C8.67 14.34 8.34 13.68 8 13 C8 15.62834278 8.19789762 18.08186701 8.5 20.6875 C8.5928125 21.49574219 8.685625 22.30398437 8.78125 23.13671875 C8.8534375 23.75160156 8.925625 24.36648437 9 25 C8.67 25 8.34 25 8 25 C7.82984375 24.443125 7.6596875 23.88625 7.484375 23.3125 C4.93650499 15.28941997 1.22883896 8.24943822 -3 1 C-2.34 1 -1.68 1 -1 1 C-0.67 0.67 -0.34 0.34 0 0 Z " fill="#A8B793" transform="translate(309,180)"/>
<path d="M0 0 C-0.804375 0.45375 -1.60875 0.9075 -2.4375 1.375 C-5.08856572 2.74725665 -5.08856572 2.74725665 -6 5 C-1.545 4.505 -1.545 4.505 3 4 C-0.43307351 5.71653675 -3.79566496 7.13167612 -7.375 8.5 C-8.47585937 8.9228125 -9.57671875 9.345625 -10.7109375 9.78125 C-13.7883308 10.92156676 -16.88025799 11.98207814 -20 13 C-19.34 11.35 -18.68 9.7 -18 8 C-18.99 7.67 -19.98 7.34 -21 7 C-17.88877564 3.53575866 -14.2911289 2.5510845 -9.9375 1.25 C-9.20466797 1.01667969 -8.47183594 0.78335938 -7.71679688 0.54296875 C-2.26080499 -1.1304025 -2.26080499 -1.1304025 0 0 Z " fill="#A9B997" transform="translate(233,150)"/>
<path d="M0 0 C2.04119788 1.61594832 4.04072937 3.2856382 6 5 C6 5.66 6 6.32 6 7 C6.66 7 7.32 7 8 7 C9.60406253 8.75751978 11.13567377 10.58175224 12.625 12.4375 C13.85089844 13.95150391 13.85089844 13.95150391 15.1015625 15.49609375 C17 18 17 18 17 19 C13.9375 19.5 13.9375 19.5 10 19 C7.24366555 16.64968162 5.17890015 13.8783002 3 11 C2.175 10.13375 1.35 9.2675 0.5 8.375 C-1 6 -1 6 -0.75 2.6875 C-0.5025 1.800625 -0.255 0.91375 0 0 Z " fill="#787F80" transform="translate(287,233)"/>
<path d="M0 0 C2.64 0 5.28 0 8 0 C11 6.625 11 6.625 11 10 C10.34 10.66 9.68 11.32 9 12 C9 12.66 9 13.32 9 14 C8.01 14 7.02 14 6 14 C6 12.68 6 11.36 6 10 C4.70366379 11.06645115 4.70366379 11.06645115 4.9375 13.5625 C4.958125 14.366875 4.97875 15.17125 5 16 C3.21983645 13.32975467 2.02836981 10.94969139 0.8125 8 C0.44769531 7.13375 0.08289063 6.2675 -0.29296875 5.375 C-1 3 -1 3 0 0 Z " fill="#606564" transform="translate(154,315)"/>
<path d="M0 0 C0.81210937 0.24556641 0.81210937 0.24556641 1.640625 0.49609375 C4.40222593 1.08590587 6.92818139 1.09609308 9.75 1.0625 C10.73484375 1.05347656 11.7196875 1.04445312 12.734375 1.03515625 C13.48203125 1.02355469 14.2296875 1.01195312 15 1 C15.33 1.99 15.66 2.98 16 4 C15.01 4.495 15.01 4.495 14 5 C13.835 5.66 13.67 6.32 13.5 7 C13.335 7.66 13.17 8.32 13 9 C9.78548731 10.60725635 6.56387464 10.05748185 3 10 C2.566875 8.2984375 2.566875 8.2984375 2.125 6.5625 C1.75375 5.386875 1.3825 4.21125 1 3 C0.34 2.67 -0.32 2.34 -1 2 C-0.67 1.34 -0.34 0.68 0 0 Z " fill="#8DA66F" transform="translate(307,161)"/>
<path d="M0 0 C1.32 0 2.64 0 4 0 C4.09688221 5.44693314 4.12862175 10.63904667 3 16 C2.67 14.68 2.34 13.36 2 12 C0.68 12 -0.64 12 -2 12 C-1.979375 12.94875 -1.95875 13.8975 -1.9375 14.875 C-2 18 -2 18 -3 20 C-3.23172827 22.54615009 -3.41894529 25.07396225 -3.5625 27.625 C-3.60568359 28.33140625 -3.64886719 29.0378125 -3.69335938 29.765625 C-3.79944751 31.51018537 -3.90022889 33.25506697 -4 35 C-4.33 35 -4.66 35 -5 35 C-5.80343159 10.42094456 -5.80343159 10.42094456 0 0 Z " fill="#ACBC95" transform="translate(177,197)"/>
<path d="M0 0 C0 0.66 0 1.32 0 2 C0.66 2 1.32 2 2 2 C2 2.66 2 3.32 2 4 C2.721875 4.2475 3.44375 4.495 4.1875 4.75 C7.24713266 6.10983674 9.4673738 7.82917754 12 10 C11.01 10.33 10.02 10.66 9 11 C9 10.34 9 9.68 9 9 C7.68 8.67 6.36 8.34 5 8 C5.33 9.98 5.66 11.96 6 14 C1.38233375 11.07172384 -3.18584346 7.94957039 -7 4 C-7 3.34 -7 2.68 -7 2 C-7.66 1.67 -8.32 1.34 -9 1 C-3.375 -1.125 -3.375 -1.125 0 0 Z " fill="#9FAF86" transform="translate(201,274)"/>
<path d="M0 0 C1.98 0 3.96 0 6 0 C7.70271281 2.7243405 8.18972259 5.04523601 8.5 8.1875 C8.665 9.445625 8.83 10.70375 9 12 C9.66 12.33 10.32 12.66 11 13 C10.67 13.66 10.34 14.32 10 15 C10.66 15 11.32 15 12 15 C12 15.66 12 16.32 12 17 C12.99 17.33 13.98 17.66 15 18 C8.375 17.25 8.375 17.25 5 15 C5.33 12.03 5.66 9.06 6 6 C2.10540926 7.68377223 2.10540926 7.68377223 0 10 C-0.45375 9.195625 -0.9075 8.39125 -1.375 7.5625 C-2.74725665 4.91143428 -2.74725665 4.91143428 -5 4 C-3.35 3.34 -1.7 2.68 0 2 C0 1.34 0 0.68 0 0 Z " fill="#6D7274" transform="translate(192,333)"/>
<path d="M0 0 C11.82994076 -0.86140345 11.82994076 -0.86140345 15.75 2.5 C16.86375 3.7375 16.86375 3.7375 18 5 C17.67 5.66 17.34 6.32 17 7 C15.35 7 13.7 7 12 7 C12.33 6.01 12.66 5.02 13 4 C11.35 3.67 9.7 3.34 8 3 C8 3.99 8 4.98 8 6 C8 6.33 8 6.66 8 7 C6.35 7 4.7 7 3 7 C2.34 10.96 1.68 14.92 1 19 C0.67 19 0.34 19 0 19 C0 12.66666667 0 6.33333333 0 0 Z " fill="#737776" transform="translate(301,324)"/>
<path d="M0 0 C1.08667969 0.01804687 2.17335938 0.03609375 3.29296875 0.0546875 C4.54013672 0.08949219 4.54013672 0.08949219 5.8125 0.125 C5.4825 1.07375 5.1525 2.0225 4.8125 3 C3.71090809 5.89562452 3.71090809 5.89562452 3.8125 8.125 C-0.4775 7.795 -4.7675 7.465 -9.1875 7.125 C-9.1875 5.475 -9.1875 3.825 -9.1875 2.125 C-5.66070901 -0.22619399 -4.15870515 -0.08943452 0 0 Z " fill="#7B8180" transform="translate(333.1875,323.875)"/>
<path d="M0 0 C2.65055078 0.32524389 4.27063754 0.19268814 6.76953125 -0.66015625 C7.09953125 -0.00015625 7.42953125 0.65984375 7.76953125 1.33984375 C-0.85109993 5.42330063 -11.31039833 3.80055283 -20.23046875 1.33984375 C-14.78235592 -4.10826908 -6.81021057 -1.33756382 0 0 Z " fill="#8EA36E" transform="translate(251.23046875,295.66015625)"/>
<path d="M0 0 C0.86625 0.495 0.86625 0.495 1.75 1 C4.19883862 2.27075898 4.19883862 2.27075898 8 2 C8 4.31 8 6.62 8 9 C7.01 9.33 6.02 9.66 5 10 C4.67 10.66 4.34 11.32 4 12 C0.125 10.125 0.125 10.125 -1 9 C-1.1328125 7.1875 -1.1328125 7.1875 -1.125 5 C-1.12757813 4.278125 -1.13015625 3.55625 -1.1328125 2.8125 C-1 1 -1 1 0 0 Z " fill="#505656" transform="translate(323,338)"/>
<path d="M0 0 C0.66 0 1.32 0 2 0 C2 2.97 2 5.94 2 9 C2.66 9.33 3.32 9.66 4 10 C3.01 13.3 2.02 16.6 1 20 C-2.96 20.495 -2.96 20.495 -7 21 C-7 22.32 -7 23.64 -7 25 C-7.66 25 -8.32 25 -9 25 C-8.67 22.36 -8.34 19.72 -8 17 C-6 16.33333333 -4 15.66666667 -2 15 C-0.9458482 11.83754459 -0.68724328 9.13051782 -0.4375 5.8125 C-0.35371094 4.72582031 -0.26992187 3.63914063 -0.18359375 2.51953125 C-0.12300781 1.68808594 -0.06242188 0.85664063 0 0 Z " fill="#7F8688" transform="translate(237,162)"/>
<path d="M0 0 C0.73605469 0.00451172 1.47210938 0.00902344 2.23046875 0.01367188 C4.02868158 0.02534858 5.82685197 0.04327989 7.625 0.0625 C7.955 0.7225 8.285 1.3825 8.625 2.0625 C-0.78 2.5575 -0.78 2.5575 -10.375 3.0625 C-10.705 3.7225 -11.035 4.3825 -11.375 5.0625 C0.835 5.0625 13.045 5.0625 25.625 5.0625 C25.625 5.3925 25.625 5.7225 25.625 6.0625 C12.755 6.0625 -0.115 6.0625 -13.375 6.0625 C-13.705 4.4125 -14.035 2.7625 -14.375 1.0625 C-9.51770355 0.08950844 -4.9249375 -0.05788805 0 0 Z " fill="#A1AD91" transform="translate(264.375,355.9375)"/>
<path d="M0 0 C8.58 0 17.16 0 26 0 C26 0.33 26 0.66 26 1 C25.30132812 1.02578125 24.60265625 1.0515625 23.8828125 1.078125 C22.97273438 1.13484375 22.06265625 1.1915625 21.125 1.25 C20.22007812 1.29640625 19.31515625 1.3428125 18.3828125 1.390625 C15.82889456 1.75611148 15.82889456 1.75611148 14.6796875 4.046875 C14.34324219 5.01367188 14.34324219 5.01367188 14 6 C9.24792529 6.43200679 6.21789302 4.98489083 2 3 C2 2.34 2 1.68 2 1 C1.34 0.67 0.68 0.34 0 0 Z " fill="#A1B28B" transform="translate(314,357)"/>
<path d="M0 0 C0.66 0 1.32 0 2 0 C2.33 6.6 2.66 13.2 3 20 C3.66 20.33 4.32 20.66 5 21 C2.74778616 22.36741555 1.47442242 23.04066478 -1.1875 22.8125 C-1.785625 22.544375 -2.38375 22.27625 -3 22 C-3.33 21.01 -3.66 20.02 -4 19 C-3.34 19 -2.68 19 -2 19 C-2 17.68 -2 16.36 -2 15 C-1.34 15 -0.68 15 0 15 C0 10.05 0 5.1 0 0 Z " fill="#464B4B" transform="translate(252,327)"/>
<path d="M0 0 C5.28 0.99 10.56 1.98 16 3 C16 3.33 16 3.66 16 4 C14.3603125 4.2165625 14.3603125 4.2165625 12.6875 4.4375 C9.06877013 4.88288104 9.06877013 4.88288104 6 6 C7.96822886 7.96822886 11.34808709 7.66248381 14 8 C14 8.33 14 8.66 14 9 C7.66606918 9.34548714 2.89738492 8.29342747 -3 6 C-2.01 4.02 -1.02 2.04 0 0 Z " fill="#A0B489" transform="translate(226,290)"/>
<path d="M0 0 C1.75570312 0.02707031 1.75570312 0.02707031 3.546875 0.0546875 C4.88492188 0.08949219 4.88492188 0.08949219 6.25 0.125 C6.58 1.115 6.91 2.105 7.25 3.125 C4.66747107 3.62949402 2.08411297 4.12874301 -0.5 4.625 C-1.59441406 4.83962891 -1.59441406 4.83962891 -2.7109375 5.05859375 C-6.14343532 5.71388879 -9.24169491 6.125 -12.75 6.125 C-11.82953704 3.82384261 -11.16934716 2.40983958 -9.09375 1 C-5.97478959 -0.16441189 -3.31910406 -0.06638208 0 0 Z " fill="#8CA274" transform="translate(239.75,148.875)"/>
<path d="M0 0 C3.3125 1.9375 3.3125 1.9375 4.25 4.625 C4.270625 5.388125 4.29125 6.15125 4.3125 6.9375 C2.29427083 6.64453125 0.27604167 6.3515625 -1.7421875 6.05859375 C-3.76890667 5.7690703 -3.76890667 5.7690703 -5.6875 6.9375 C-7.68710012 6.977492 -9.68797242 6.98096799 -11.6875 6.9375 C-11.3575 5.6175 -11.0275 4.2975 -10.6875 2.9375 C-9.6975 2.9375 -8.7075 2.9375 -7.6875 2.9375 C-7.6875 2.2775 -7.6875 1.6175 -7.6875 0.9375 C-4.67678469 -1.35064364 -3.73860542 -1.07722529 0 0 Z " fill="#596161" transform="translate(338.6875,344.0625)"/>
<path d="M0 0 C2.2486299 3.37294485 2.24499173 4.47460208 2.22705078 8.41772461 C2.22689972 9.52574936 2.22674866 10.63377411 2.22659302 11.77537537 C2.21627045 12.97227493 2.20594788 14.1691745 2.1953125 15.40234375 C2.1924826 16.63159073 2.18965271 17.86083771 2.18673706 19.12733459 C2.17742966 22.39574818 2.15947251 25.66396488 2.1373291 28.93231201 C2.11692336 32.2510738 2.10790897 35.56986561 2.09765625 38.88867188 C2.07796824 44.73024409 2.04952968 50.57169963 2.01345825 56.41319275 C2.00203543 58.60877003 2 60.804393 2 63 C1.01 63.495 1.01 63.495 0 64 C0 42.88 0 21.76 0 0 Z " fill="#B0A68E" transform="translate(238,183)"/>
<path d="M0 0 C8.25 0.33 16.5 0.66 25 1 C25.66 2.32 26.32 3.64 27 5 C27.66 5 28.32 5 29 5 C29.33 5.99 29.66 6.98 30 8 C28.35 8.33 26.7 8.66 25 9 C25 8.01 25 7.02 25 6 C24.05125 5.690625 23.1025 5.38125 22.125 5.0625 C19 4 19 4 17 3 C13.74992201 2.92905696 10.51183871 3.00320477 7.26171875 3.0625 C4.35116267 3.00672887 1.82115634 2.67750096 -1 2 C-0.67 1.34 -0.34 0.68 0 0 Z " fill="#5A6569" transform="translate(258,228)"/>
<path d="M0 0 C0.99 0.66 1.98 1.32 3 2 C2.67 3.65 2.34 5.3 2 7 C-0.64 7 -3.28 7 -6 7 C-6.33 7.66 -6.66 8.32 -7 9 C-6.67 7.02 -6.34 5.04 -6 3 C-5.01 2.67 -4.02 2.34 -3 2 C-8.13725982 1.51510163 -8.13725982 1.51510163 -12.4375 4 C-12.953125 4.66 -13.46875 5.32 -14 6 C-14 5.34 -14 4.68 -14 4 C-14.66 3.67 -15.32 3.34 -16 3 C-11.28232626 -0.90428172 -5.83283991 -0.69524562 0 0 Z " fill="#606565" transform="translate(228,324)"/>
<path d="M0 0 C2.64 0 5.28 0 8 0 C8 9.57 8 19.14 8 29 C7.67 29 7.34 29 7 29 C7 19.76 7 10.52 7 1 C6.01 2.98 5.02 4.96 4 7 C1.3125 7.875 1.3125 7.875 -1 8 C-1.125 2.25 -1.125 2.25 0 0 Z " fill="#9AA19D" transform="translate(280,314)"/>
<path d="M0 0 C0.33 0.66 0.66 1.32 1 2 C3.52733235 2.65555119 3.52733235 2.65555119 6 3 C6 3.33 6 3.66 6 4 C-4.48930498 4.97960463 -14.51329011 4.89571109 -25 4 C-25 3.67 -25 3.34 -25 3 C-20.05 3 -15.1 3 -10 3 C-9.67 2.01 -9.34 1.02 -9 0 C-3.375 -1.125 -3.375 -1.125 0 0 Z " fill="#91A577" transform="translate(316,358)"/>
<path d="M0 0 C4.75481646 0.57634139 7.97048212 2.55068521 12 5 C8.98968256 5.93423645 8.13349732 6.04449911 5 5 C5 5.99 5 6.98 5 8 C5.928125 8.0825 6.85625 8.165 7.8125 8.25 C11 9 11 9 12.875 11.0625 C13.24625 11.701875 13.6175 12.34125 14 13 C9.81321806 13 6.88477203 10.97458921 3.3125 9 C2.61060547 8.6184375 1.90871094 8.236875 1.18554688 7.84375 C-0.54601247 6.90140478 -2.27341426 5.95142732 -4 5 C-3.401875 4.855625 -2.80375 4.71125 -2.1875 4.5625 C-0.43849596 4.1127561 1.28677023 3.57107659 3 3 C2.01 2.67 1.02 2.34 0 2 C0 1.34 0 0.68 0 0 Z " fill="#ACBE99" transform="translate(280,154)"/>
<path d="M0 0 C0.99 0.66 1.98 1.32 3 2 C2.39671875 2.66386719 1.7934375 3.32773438 1.171875 4.01171875 C0.37265625 4.89472656 -0.4265625 5.77773437 -1.25 6.6875 C-2.03890625 7.55761719 -2.8278125 8.42773438 -3.640625 9.32421875 C-5.84499564 11.82420863 -7.94133941 14.37945728 -10 17 C-10.33 16.34 -10.66 15.68 -11 15 C-11.99 15 -12.98 15 -14 15 C-14.33 15.66 -14.66 16.32 -15 17 C-15.66 16.67 -16.32 16.34 -17 16 C-15.68 14.35 -14.36 12.7 -13 11 C-11.68 11.66 -10.36 12.32 -9 13 C-8.938125 12.0925 -8.87625 11.185 -8.8125 10.25 C-7.80517809 6.22071238 -6.47994048 5.15424887 -3 3 C-2.01 3 -1.02 3 0 3 C0 2.01 0 1.02 0 0 Z " fill="#A4B690" transform="translate(198,171)"/>
<path d="M0 0 C0.78375 0.04125 1.5675 0.0825 2.375 0.125 C2.1875 1.9375 2.1875 1.9375 1.375 4.125 C-0.28779327 5.1314275 -1.95483484 6.13085407 -3.625 7.125 C-5.18101559 9.4034514 -6.39461817 11.66423634 -7.625 14.125 C-8.945 13.795 -10.265 13.465 -11.625 13.125 C-9.75 8.375 -9.75 8.375 -8.625 6.125 C-7.965 6.125 -7.305 6.125 -6.625 6.125 C-6.33625 5.50625 -6.0475 4.8875 -5.75 4.25 C-4.16515329 1.25640067 -3.47581022 0.16551477 0 0 Z " fill="#96AA7F" transform="translate(196.625,169.875)"/>
<path d="M0 0 C5.75 -0.125 5.75 -0.125 8 1 C8.96070434 3.88211302 9.10581883 5.69850044 9.0625 8.6875 C9.05347656 9.49574219 9.04445313 10.30398438 9.03515625 11.13671875 C9.02355469 11.75160156 9.01195312 12.36648438 9 13 C8.67 13 8.34 13 8 13 C8 11.02 8 9.04 8 7 C6.8553125 7.556875 6.8553125 7.556875 5.6875 8.125 C4.800625 8.41375 3.91375 8.7025 3 9 C2.01 8.34 1.02 7.68 0 7 C0.66 7 1.32 7 2 7 C2 6.34 2 5.68 2 5 C1.01 4.67 0.02 4.34 -1 4 C-0.67 2.68 -0.34 1.36 0 0 Z " fill="#696E6E" transform="translate(335,325)"/>
<path d="M0 0 C0.78375 0.04125 1.5675 0.0825 2.375 0.125 C1.70329194 3.9313457 0.64753436 7.47706816 -0.625 11.125 C-0.955 10.135 -1.285 9.145 -1.625 8.125 C-4.90273504 8.87650023 -4.90273504 8.87650023 -6.625 12.125 C-7.285 11.795 -7.945 11.465 -8.625 11.125 C-8.00580922 9.66419067 -7.37943308 8.20642545 -6.75 6.75 C-6.40195313 5.93789063 -6.05390625 5.12578125 -5.6953125 4.2890625 C-4.18700939 1.23942774 -3.48630667 0.1660146 0 0 Z " fill="#757776" transform="translate(182.625,314.875)"/>
<path d="M0 0 C-0.25 2.375 -0.25 2.375 -1 5 C-3.89810116 7.09862498 -5.28378861 7 -9 7 C-11.25 5 -11.25 5 -13 3 C-8.38948622 0.05439397 -5.37637186 -1.72811953 0 0 Z " fill="#5D5E5F" transform="translate(336,334)"/>
<path d="M0 0 C5.82952386 0.40203613 9.35347814 1.14678675 14 5 C14.33 5.99 14.66 6.98 15 8 C14.34 8.66 13.68 9.32 13 10 C10.5 9.9375 10.5 9.9375 8 9 C7.690625 8.175 7.38125 7.35 7.0625 6.5 C6.711875 5.675 6.36125 4.85 6 4 C2.94727535 3.10169161 2.94727535 3.10169161 0 3 C0 2.01 0 1.02 0 0 Z " fill="#92A779" transform="translate(285,159)"/>
<path d="M0 0 C0.33 0 0.66 0 1 0 C1.309375 1.11375 1.61875 2.2275 1.9375 3.375 C2.82326483 6.7945155 2.82326483 6.7945155 4 9 C2.3125 11.0625 2.3125 11.0625 0 13 C-2.75 12.75 -2.75 12.75 -5 12 C-4.34 11.34 -3.68 10.68 -3 10 C-3.66 8.35 -4.32 6.7 -5 5 C-4.34 4.67 -3.68 4.34 -3 4 C-2.34 4.33 -1.68 4.66 -1 5 C-0.67 3.35 -0.34 1.7 0 0 Z " fill="#5D6262" transform="translate(259,338)"/>
<path d="M0 0 C2.97 0.495 2.97 0.495 6 1 C6 1.66 6 2.32 6 3 C8.64 3.33 11.28 3.66 14 4 C14.25 6.3125 14.25 6.3125 14 9 C12 10.8125 12 10.8125 10 12 C8.09574752 10.34412827 7.09533282 9.44942615 6.5625 6.9375 C6.17549168 4.78826429 6.17549168 4.78826429 3.9375 3.75 C3.298125 3.5025 2.65875 3.255 2 3 C2 2.34 2 1.68 2 1 C1.34 0.67 0.68 0.34 0 0 Z " fill="#9FAD8C" transform="translate(209,209)"/>
<path d="M0 0 C2.50037734 2.17424117 3.43628586 3.73045798 4 7 C4.66 6.67 5.32 6.34 6 6 C7.70702735 5.93003986 9.41668003 5.91559846 11.125 5.9375 C12.03507812 5.94652344 12.94515625 5.95554688 13.8828125 5.96484375 C14.58148438 5.97644531 15.28015625 5.98804688 16 6 C15.38461538 11.53846154 15.38461538 11.53846154 13.4375 13.875 C12.7259375 14.431875 12.7259375 14.431875 12 15 C11.67 14.01 11.34 13.02 11 12 C11.99 11.67 12.98 11.34 14 11 C12.18806994 8.75675164 12.18806994 8.75675164 9.6171875 8.8046875 C8.25980469 8.83949219 8.25980469 8.83949219 6.875 8.875 C5.96492188 8.89304688 5.05484375 8.91109375 4.1171875 8.9296875 C3.41851562 8.95289063 2.71984375 8.97609375 2 9 C2 7.35 2 5.7 2 4 C1.34 4 0.68 4 0 4 C0 2.68 0 1.36 0 0 Z " fill="#B4C1A0" transform="translate(309,154)"/>
<path d="M0 0 C2.3431213 0.25561323 4.67843403 0.59270772 7 1 C7.33 1.66 7.66 2.32 8 3 C7.1875 4.875 7.1875 4.875 6 7 C5.62875 7.7425 5.2575 8.485 4.875 9.25 C4.58625 9.8275 4.2975 10.405 4 11 C3.01 10.67 2.02 10.34 1 10 C1 8.35 1 6.7 1 5 C0.34 5 -0.32 5 -1 5 C-0.67 3.35 -0.34 1.7 0 0 Z " fill="#4A4F4E" transform="translate(296,313)"/>
<path d="M0 0 C0.556875 0.45375 1.11375 0.9075 1.6875 1.375 C-4.02985105 3.82529331 -8.10279227 4.70766291 -14.3125 4.375 C-14.3125 4.045 -14.3125 3.715 -14.3125 3.375 C-10.8475 2.88 -10.8475 2.88 -7.3125 2.375 C-6.9825 1.385 -6.6525 0.395 -6.3125 -0.625 C-7.6428125 -0.3465625 -7.6428125 -0.3465625 -9 -0.0625 C-12.16428811 0.35542484 -14.26089642 0.18277742 -17.3125 -0.625 C-17.3125 -0.955 -17.3125 -1.285 -17.3125 -1.625 C-10.26542305 -3.40387379 -6.1713502 -4.33662446 0 0 Z " fill="#A3B489" transform="translate(274.3125,294.625)"/>
<path d="M0 0 C8.58 0 17.16 0 26 0 C26.66 1.32 27.32 2.64 28 4 C28.66 4 29.32 4 30 4 C30 4.66 30 5.32 30 6 C29.01 6.33 28.02 6.66 27 7 C26.67 5.68 26.34 4.36 26 3 C24.70964844 2.93941406 23.41929687 2.87882813 22.08984375 2.81640625 C20.37238745 2.73194119 18.65493998 2.64729623 16.9375 2.5625 C16.08994141 2.52318359 15.24238281 2.48386719 14.36914062 2.44335938 C9.51999791 2.19996611 4.79371788 1.77401958 0 1 C0 0.67 0 0.34 0 0 Z " fill="#A8ADAF" transform="translate(257,227)"/>
<path d="M0 0 C0.33 0 0.66 0 1 0 C1.33 4.62 1.66 9.24 2 14 C2.66 13.67 3.32 13.34 4 13 C4 13.66 4 14.32 4 15 C4.99 15 5.98 15 7 15 C7 12.03 7 9.06 7 6 C7.33 6 7.66 6 8 6 C8.33 9.96 8.66 13.92 9 18 C2.84765625 18.87890625 2.84765625 18.87890625 1 19 C0 18 0 18 -0.11352539 16.23413086 C-0.10828857 15.48526611 -0.10305176 14.73640137 -0.09765625 13.96484375 C-0.09443359 13.15595703 -0.09121094 12.34707031 -0.08789062 11.51367188 C-0.07951172 10.66353516 -0.07113281 9.81339844 -0.0625 8.9375 C-0.05798828 8.08349609 -0.05347656 7.22949219 -0.04882812 6.34960938 C-0.03700373 4.23304337 -0.01906769 2.11651315 0 0 Z " fill="#767978" transform="translate(310,332)"/>
<path d="M0 0 C0.66 0.99 1.32 1.98 2 3 C2.66 3.33 3.32 3.66 4 4 C4 5.32 4 6.64 4 8 C3.34 8 2.68 8 2 8 C1.34 9.65 0.68 11.3 0 13 C-0.66 11.68 -1.32 10.36 -2 9 C-3.32 9.33 -4.64 9.66 -6 10 C-5.18957164 8.51969728 -4.37659652 7.04078858 -3.5625 5.5625 C-2.88380859 4.32693359 -2.88380859 4.32693359 -2.19140625 3.06640625 C-1 1 -1 1 0 0 Z " fill="#A3B38D" transform="translate(310,259)"/>
<path d="M0 0 C0.66 0.33 1.32 0.66 2 1 C2 1.66 2 2.32 2 3 C2.66 3 3.32 3 4 3 C4 4.65 4 6.3 4 8 C4.66 8 5.32 8 6 8 C6.33 10.97 6.66 13.94 7 17 C4.578125 16.34375 4.578125 16.34375 2 15 C1.109375 12.46875 1.109375 12.46875 0.75 9.5 C0.31760028 5.61486847 0.31760028 5.61486847 -1 2 C-0.67 1.34 -0.34 0.68 0 0 Z " fill="#90A474" transform="translate(316,192)"/>
<path d="M0 0 C1.32 0.33 2.64 0.66 4 1 C3.49890042 5.38462134 2.01704885 7.8000997 -1 11 C-1.66 11 -2.32 11 -3 11 C-3.66 9.35 -4.32 7.7 -5 6 C-4.360625 5.7525 -3.72125 5.505 -3.0625 5.25 C-0.81258459 4.18437567 -0.81258459 4.18437567 -0.25 1.875 C-0.1675 1.25625 -0.085 0.6375 0 0 Z " fill="#4F5A5B" transform="translate(230,338)"/>
<path d="M0 0 C2.31 0.33 4.62 0.66 7 1 C7.33 3.31 7.66 5.62 8 8 C5 9 5 9 2 8 C2 7.01 2 6.02 2 5 C1.34 5 0.68 5 0 5 C0 3.35 0 1.7 0 0 Z " fill="#505654" transform="translate(156,316)"/>
<path d="M0 0 C1.485 0.99 1.485 0.99 3 2 C3.12390657 4.57024231 3.06754945 6.86646182 2.85546875 9.4140625 C2.80683182 10.14370209 2.75819489 10.87334167 2.70808411 11.62509155 C2.54909592 13.95967713 2.36856397 16.29203276 2.1875 18.625 C2.07605364 20.20562966 1.96600967 21.78635888 1.85742188 23.3671875 C1.58788533 27.24613493 1.29901551 31.12321812 1 35 C0.67 35 0.34 35 0 35 C0 23.45 0 11.9 0 0 Z " fill="#8D9E77" transform="translate(241,255)"/>
<path d="M0 0 C1.13199353 0.9080162 2.25532363 1.82683826 3.375 2.75 C4.00148438 3.26046875 4.62796875 3.7709375 5.2734375 4.296875 C7.08312318 6.08199481 8.00117455 7.67949644 9 10 C2.6 10.49230769 2.6 10.49230769 -0.4375 8 C-0.953125 7.34 -1.46875 6.68 -2 6 C-1.34 4.02 -0.68 2.04 0 0 Z " fill="#798282" transform="translate(295,242)"/>
<path d="M0 0 C0.99 0 1.98 0 3 0 C5.83022097 3.99560608 4.76210446 7.42737323 4 12 C3.01 12.33 2.02 12.66 1 13 C0 12 0 12 -0.09765625 9.27734375 C-0.08605469 8.17519531 -0.07445312 7.07304687 -0.0625 5.9375 C-0.05347656 4.83277344 -0.04445313 3.72804688 -0.03515625 2.58984375 C-0.02355469 1.73519531 -0.01195312 0.88054687 0 0 Z " fill="#434B4A" transform="translate(297,329)"/>
<path d="M0 0 C1.69141656 0.08963062 3.37959602 0.24577676 5.0625 0.4375 C6.44115234 0.59025391 6.44115234 0.59025391 7.84765625 0.74609375 C8.55792969 0.82988281 9.26820313 0.91367187 10 1 C10.625 2.875 10.625 2.875 11 5 C9 7 9 7 6.375 7.125 C5.59125 7.08375 4.8075 7.0425 4 7 C3.67 5.35 3.34 3.7 3 2 C1.68 1.67 0.36 1.34 -1 1 C-0.67 0.67 -0.34 0.34 0 0 Z " fill="#96A879" transform="translate(215,288)"/>
<path d="M0 0 C0.99 0 1.98 0 3 0 C3 7.59 3 15.18 3 23 C2.34 23.33 1.68 23.66 1 24 C0.67 16.08 0.34 8.16 0 0 Z " fill="#3E4343" transform="translate(284,315)"/>
<path d="M0 0 C0.66 0.66 1.32 1.32 2 2 C0.68 2 -0.64 2 -2 2 C-2.33 2.99 -2.66 3.98 -3 5 C-0.69 5.66 1.62 6.32 4 7 C4 9.64 4 12.28 4 15 C3.67 15 3.34 15 3 15 C3 12.69 3 10.38 3 8 C1.906875 8.020625 0.81375 8.04125 -0.3125 8.0625 C-4 8 -4 8 -7 7 C-7 6.01 -7 5.02 -7 4 C-7.66 3.67 -8.32 3.34 -9 3 C-6.03 2.01 -3.06 1.02 0 0 Z " fill="#7A8786" transform="translate(277,323)"/>
<path d="M0 0 C3 2 3 2 4 5 C4.99 3.68 5.98 2.36 7 1 C8.39195915 5.17587745 6.82323219 7.13474776 5 11 C3.35 10.67 1.7 10.34 0 10 C0 6.7 0 3.4 0 0 Z " fill="#DDE8E5" transform="translate(298,259)"/>
<path d="M0 0 C0.66 0 1.32 0 2 0 C2 1.32 2 2.64 2 4 C2.99 4 3.98 4 5 4 C4.67 3.01 4.34 2.02 4 1 C4.99 0.67 5.98 0.34 7 0 C7.6875 3.3125 7.6875 3.3125 8 7 C6.5625 8.9375 6.5625 8.9375 5 10 C3.0625 9.5 3.0625 9.5 1 8 C0.31209578 5.30341548 0.18053536 2.7982981 0 0 Z " fill="#464D4D" transform="translate(158,325)"/>
<path d="M0 0 C0.33 0 0.66 0 1 0 C1.12117188 1.07121094 1.24234375 2.14242187 1.3671875 3.24609375 C1.53597601 4.64328752 1.70527313 6.04041991 1.875 7.4375 C1.95363281 8.14455078 2.03226562 8.85160156 2.11328125 9.58007812 C2.33927676 11.39673432 2.66300727 13.20062522 3 15 C3.66 15.33 4.32 15.66 5 16 C4.67 18.64 4.34 21.28 4 24 C3.731875 23.38125 3.46375 22.7625 3.1875 22.125 C2.04443152 19.7004767 2.04443152 19.7004767 -1 18 C-1.2487793 16.12060547 -1.2487793 16.12060547 -1.07421875 13.8671875 C-1.01943359 13.06152344 -0.96464844 12.25585938 -0.90820312 11.42578125 C-0.83537109 10.58402344 -0.76253906 9.74226562 -0.6875 8.875 C-0.5956543 7.60076172 -0.5956543 7.60076172 -0.50195312 6.30078125 C-0.34848609 4.19946335 -0.17602278 2.09954876 0 0 Z " fill="#AFC19B" transform="translate(320,220)"/>
<path d="M0 0 C0.763125 0.309375 1.52625 0.61875 2.3125 0.9375 C4.18789677 1.67893593 6.08684652 2.36228217 8 3 C8 5.97 8 8.94 8 12 C5.5 10.625 5.5 10.625 3 9 C3 8.34 3 7.68 3 7 C2.34 7 1.68 7 1 7 C1 6.01 1 5.02 1 4 C1.66 4 2.32 4 3 4 C3 4.66 3 5.32 3 6 C3.66 6 4.32 6 5 6 C4.67 5.34 4.34 4.68 4 4 C1.97536745 3.34786708 1.97536745 3.34786708 0 3 C0 2.01 0 1.02 0 0 Z " fill="#C5B89B" transform="translate(239,177)"/>
<path d="M0 0 C1.32 0 2.64 0 4 0 C4 2.97 4 5.94 4 9 C2.68 9 1.36 9 0 9 C-0.33 9.66 -0.66 10.32 -1 11 C-1 8.69 -1 6.38 -1 4 C-1.66 4 -2.32 4 -3 4 C-2 2 -2 2 0 0 Z " fill="#4D5456" transform="translate(171,334)"/>
<path d="M0 0 C0.495 0.391875 0.99 0.78375 1.5 1.1875 C0.015 3.6625 0.015 3.6625 -1.5 6.1875 C-5.65654359 5.72566182 -7.71466571 5.30740898 -10.5 2.1875 C-3.28774617 -1.06851751 -3.28774617 -1.06851751 0 0 Z " fill="#98A97F" transform="translate(279.5,288.8125)"/>
<path d="M0 0 C2.30642911 3.45964367 2.90500854 6.61697084 3.625 10.625 C3.82283081 11.69717773 3.82283081 11.69717773 4.0246582 12.79101562 C4.92567917 17.93038797 5.27987519 22.77566311 5 28 C4.67 28 4.34 28 4 28 C3.86722656 27.03578125 3.73445313 26.0715625 3.59765625 25.078125 C3.42105469 23.81484375 3.24445313 22.5515625 3.0625 21.25 C2.88847656 19.99703125 2.71445312 18.7440625 2.53515625 17.453125 C1.993063 13.66918292 1.993063 13.66918292 1 10 C0.34 9.67 -0.32 9.34 -1 9 C-0.835 8.443125 -0.67 7.88625 -0.5 7.3125 C0.04041351 4.81308751 0.07082065 2.54954338 0 0 Z " fill="#B9C6AA" transform="translate(322,200)"/>
<path d="M0 0 C2.97 1.65 5.94 3.3 9 5 C8.01 5.66 7.02 6.32 6 7 C6 6.34 6 5.68 6 5 C4.68 4.67 3.36 4.34 2 4 C2.33 5.98 2.66 7.96 3 10 C1.02 8.68 -0.96 7.36 -3 6 C-2.67 4.68 -2.34 3.36 -2 2 C-1.34 2 -0.68 2 0 2 C0 1.34 0 0.68 0 0 Z " fill="#A9B792" transform="translate(204,278)"/>
<path d="M0 0 C3.32923681 4.99385521 5.89286808 10.38098156 8 16 C7.34 15.67 6.68 15.34 6 15 C6 14.34 6 13.68 6 13 C5.34 13 4.68 13 4 13 C4 12.01 4 11.02 4 10 C2.02463255 10.34786708 2.02463255 10.34786708 0 11 C-0.33 11.66 -0.66 12.32 -1 13 C-1.66 11.35 -2.32 9.7 -3 8 C-2.01 8.33 -1.02 8.66 0 9 C0 6.03 0 3.06 0 0 Z " fill="#A4B591" transform="translate(182,247)"/>
<path d="M0 0 C-0.33 0.99 -0.66 1.98 -1 3 C-1 2.34 -1 1.68 -1 1 C-5.58544817 3.58110689 -5.58544817 3.58110689 -8 8 C-7.67 8.99 -7.34 9.98 -7 11 C-8.65 11.66 -10.3 12.32 -12 13 C-11.835 12.071875 -11.67 11.14375 -11.5 10.1875 C-10.92251612 7.04378647 -10.92251612 7.04378647 -11 4 C-9.68 3.67 -8.36 3.34 -7 3 C-7 2.34 -7 1.68 -7 1 C-4 0 -4 0 0 0 Z " fill="#768081" transform="translate(211,210)"/>
<path d="M0 0 C0.94875 0.350625 1.8975 0.70125 2.875 1.0625 C2.545 1.7225 2.215 2.3825 1.875 3.0625 C0.225 3.0625 -1.425 3.0625 -3.125 3.0625 C-3.125 4.0525 -3.125 5.0425 -3.125 6.0625 C-2.465 6.7225 -1.805 7.3825 -1.125 8.0625 C-2.445 8.3925 -3.765 8.7225 -5.125 9.0625 C-5.125 7.4125 -5.125 5.7625 -5.125 4.0625 C-5.785 4.0625 -6.445 4.0625 -7.125 4.0625 C-4.65909091 -1.39772727 -4.65909091 -1.39772727 0 0 Z " fill="#626667" transform="translate(225.125,333.9375)"/>
<path d="M0 0 C3.0625 0.1875 3.0625 0.1875 5.0625 2.1875 C0.5625 6.1875 0.5625 6.1875 -3.9375 6.1875 C-3.980221 4.52138095 -3.97813832 2.85367115 -3.9375 1.1875 C-2.9375 0.1875 -2.9375 0.1875 0 0 Z " fill="#515755" transform="translate(327.9375,324.8125)"/>
<path d="M0 0 C1.32 1.32 2.64 2.64 4 4 C3.01 4.33 2.02 4.66 1 5 C1.33 5.66 1.66 6.32 2 7 C1.34 7.66 0.68 8.32 0 9 C-2.31 7.02 -4.62 5.04 -7 3 C-3 1 -3 1 0 0 Z " fill="#A7B48D" transform="translate(300,166)"/>
<path d="M0 0 C0.66 0 1.32 0 2 0 C2 2.97 2 5.94 2 9 C2.66 9.33 3.32 9.66 4 10 C3.34 12.31 2.68 14.62 2 17 C1.34 16.67 0.68 16.34 0 16 C0 10.72 0 5.44 0 0 Z " fill="#787C7A" transform="translate(237,162)"/>
<path d="M0 0 C0.33 0 0.66 0 1 0 C1.66 2.97 2.32 5.94 3 9 C4.65 8.67 6.3 8.34 8 8 C8.33 9.65 8.66 11.3 9 13 C7 14 7 14 5.0625 13.375 C2.32740159 11.55160106 1.33630004 10.00667509 0 7 C-0.1875 3.1875 -0.1875 3.1875 0 0 Z " fill="#A0B08A" transform="translate(299,153)"/>
<path d="M0 0 C19.96810934 -0.18451025 19.96810934 -0.18451025 29 1 C29 1.33 29 1.66 29 2 C19.26515211 3.39375575 9.75756546 2.6977357 0 2 C0 1.34 0 0.68 0 0 Z " fill="#B4BFA7" transform="translate(275,356)"/>
<path d="M0 0 C2.475 0.495 2.475 0.495 5 1 C5.12375 1.78375 5.2475 2.5675 5.375 3.375 C5.79117993 6.14057822 5.79117993 6.14057822 8 8 C2.25 7.125 2.25 7.125 0 6 C0 4.02 0 2.04 0 0 Z " fill="#787C7C" transform="translate(212,343)"/>
<path d="M0 0 C2.31 0 4.62 0 7 0 C6.67 1.65 6.34 3.3 6 5 C5.34 5 4.68 5 4 5 C3.67 5.66 3.34 6.32 3 7 C1.68 6.01 0.36 5.02 -1 4 C-0.67 2.68 -0.34 1.36 0 0 Z " fill="#444B4C" transform="translate(222,336)"/>
<path d="M0 0 C0.763125 0.309375 1.52625 0.61875 2.3125 0.9375 C4.18789677 1.67893593 6.08684652 2.36228217 8 3 C8.6875 5.0625 8.6875 5.0625 9 7 C6.3333581 8.33332095 4.83319697 7.67102033 2 7 C1.34 4.69 0.68 2.38 0 0 Z " fill="#8EA26F" transform="translate(205,281)"/>
<path d="M0 0 C1.98 0 3.96 0 6 0 C6 1.98 6 3.96 6 6 C4.02 6 2.04 6 0 6 C0 4.02 0 2.04 0 0 Z " fill="#86857B" transform="translate(274,257)"/>
<path d="M0 0 C1.67542976 0.28604898 3.34385343 0.61781233 5 1 C5 1.99 5 2.98 5 4 C4.67 3.67 4.34 3.34 4 3 C3.67 5.31 3.34 7.62 3 10 C0.59927045 7.11912454 -1.47291037 4.43595166 -3 1 C-2.34 1 -1.68 1 -1 1 C-0.67 0.67 -0.34 0.34 0 0 Z " fill="#ACBD95" transform="translate(309,180)"/>
<path d="M0 0 C0.99 0 1.98 0 3 0 C3.25 2.25 3.25 2.25 3 5 C1 7.3125 1 7.3125 -1 9 C-1.66 8.67 -2.32 8.34 -3 8 C-3 3.78825048 -2.80255323 2.9063515 0 0 Z " fill="#474C4B" transform="translate(178,323)"/>
<path d="M0 0 C0.33 0 0.66 0 1 0 C1.33 5.28 1.66 10.56 2 16 C1.01 15.67 0.02 15.34 -1 15 C-2.18609365 9.3067505 -1.66251802 5.57432514 0 0 Z " fill="#8EA06F" transform="translate(323,220)"/>
<path d="M0 0 C-5.66955967 2.93006655 -10.68661789 3.30548623 -17 3 C-17.99 2.34 -18.98 1.68 -20 1 C-13.29980211 0.29867087 -6.73742646 -0.11044961 0 0 Z " fill="#D5E8E1" transform="translate(254,155)"/>
<path d="M0 0 C1.0326802 2.78823655 1.04509293 3.8677274 0.0625 6.75 C-0.288125 7.4925 -0.63875 8.235 -1 9 C-3.31 9 -5.62 9 -8 9 C-6.68 8.67 -5.36 8.34 -4 8 C-4.33 6.35 -4.66 4.7 -5 3 C-4.360625 2.87625 -3.72125 2.7525 -3.0625 2.625 C-2.0415625 2.315625 -2.0415625 2.315625 -1 2 C-0.67 1.34 -0.34 0.68 0 0 Z " fill="#6E7272" transform="translate(249,342)"/>
<path d="M0 0 C1.32 0.66 2.64 1.32 4 2 C3.34 2 2.68 2 2 2 C2.04125 3.258125 2.0825 4.51625 2.125 5.8125 C2.2390374 9.29064073 2.05925681 9.91111478 0 13 C-1.25069801 10.49860398 -1.13302467 8.72607309 -1.125 5.9375 C-1.12757813 5.03902344 -1.13015625 4.14054687 -1.1328125 3.21484375 C-1 1 -1 1 0 0 Z " fill="#404544" transform="translate(237,326)"/>
<path d="M0 0 C2.7972908 2.06756277 3.02692273 3.14440371 3.6875 6.6875 C3.790625 7.780625 3.89375 8.87375 4 10 C3.01 10.66 2.02 11.32 1 12 C1 10.35 1 8.7 1 7 C0.34 7 -0.32 7 -1 7 C-0.67 4.69 -0.34 2.38 0 0 Z " fill="#8A9E6F" transform="translate(175,232)"/>
<path d="M0 0 C0 0.99 0 1.98 0 3 C-0.66 3 -1.32 3 -2 3 C-1.67 3.99 -1.34 4.98 -1 6 C-1.33 6.66 -1.66 7.32 -2 8 C-3.98 8 -5.96 8 -8 8 C-7.67 6.68 -7.34 5.36 -7 4 C-6.01 4 -5.02 4 -4 4 C-4 3.34 -4 2.68 -4 2 C-2.68 1.34 -1.36 0.68 0 0 Z " fill="#6B6F70" transform="translate(335,343)"/>
<path d="M0 0 C0.33 0 0.66 0 1 0 C1 7.26 1 14.52 1 22 C0.34 21.34 -0.32 20.68 -1 20 C-3.06874034 19.3574765 -3.06874034 19.3574765 -5 19 C-4.35546875 18.49984375 -3.7109375 17.9996875 -3.046875 17.484375 C-0.34876055 14.20956433 -0.33465669 11.32121729 -0.25 7.25 C-0.22035156 6.55261719 -0.19070312 5.85523438 -0.16015625 5.13671875 C-0.08981542 3.42509187 -0.04260054 1.71254185 0 0 Z " fill="#C9CED0" transform="translate(222,191)"/>
<path d="M0 0 C1 3 1 3 0.3125 5.04296875 C-1.23571736 7.35147142 -2.50617683 8.12518345 -5 9.3125 C-5.70125 9.65925781 -6.4025 10.00601562 -7.125 10.36328125 C-8.053125 10.67845703 -8.053125 10.67845703 -9 11 C-9.66 10.67 -10.32 10.34 -11 10 C-10.01 9.67 -9.02 9.34 -8 9 C-8 8.34 -8 7.68 -8 7 C-6.25 5.2734375 -6.25 5.2734375 -4 3.375 C-3.2575 2.74335938 -2.515 2.11171875 -1.75 1.4609375 C-1.1725 0.97882813 -0.595 0.49671875 0 0 Z " fill="#A5B294" transform="translate(303,269)"/>
<path d="M0 0 C0.66 0.33 1.32 0.66 2 1 C2 1.66 2 2.32 2 3 C3.32 2.67 4.64 2.34 6 2 C6.33 2.66 6.66 3.32 7 4 C4.59454362 5.20272819 3.05003047 5.10071472 0.375 5.0625 C-0.85089844 5.04896484 -0.85089844 5.04896484 -2.1015625 5.03515625 C-3.04128906 5.01775391 -3.04128906 5.01775391 -4 5 C-4 4.01 -4 3.02 -4 2 C-2.125 0.9375 -2.125 0.9375 0 0 Z " fill="#606A6A" transform="translate(241,248)"/>
<path d="M0 0 C0.33 0.66 0.66 1.32 1 2 C1.66 2.33 2.32 2.66 3 3 C2 4 2 4 -1.59765625 4.09765625 C-3.08596867 4.0909822 -4.57426432 4.07902183 -6.0625 4.0625 C-6.82111328 4.05798828 -7.57972656 4.05347656 -8.36132812 4.04882812 C-10.24091871 4.0370068 -12.12046899 4.01907078 -14 4 C-14 3.67 -14 3.34 -14 3 C-12.60974609 2.80083984 -12.60974609 2.80083984 -11.19140625 2.59765625 C-9.99386719 2.42105469 -8.79632813 2.24445313 -7.5625 2.0625 C-6.36753906 1.88847656 -5.17257813 1.71445312 -3.94140625 1.53515625 C-1.12044324 1.31014787 -1.12044324 1.31014787 0 0 Z " fill="#6AAEA8" transform="translate(211,357)"/>
<path d="M0 0 C0.33 0.66 0.66 1.32 1 2 C-2.47325181 3.1577506 -5.36067448 3.06866652 -9 3 C-9.33 2.01 -9.66 1.02 -10 0 C-6.64338305 -1.67830848 -3.63864406 -0.6353188 0 0 Z " fill="#3F4744" transform="translate(281,347)"/>
<path d="M0 0 C3.375 0.25 3.375 0.25 7 1 C8.4375 3.0625 8.4375 3.0625 9 5 C6.6875 5.625 6.6875 5.625 4 6 C1 4 1 4 0.3125 1.875 C0.209375 1.25625 0.10625 0.6375 0 0 Z " fill="#464A4B" transform="translate(216,345)"/>
<path d="M0 0 C1.32 0.99 2.64 1.98 4 3 C3.67 3.66 3.34 4.32 3 5 C3.66 5 4.32 5 5 5 C5 5.66 5 6.32 5 7 C5.99 7.33 6.98 7.66 8 8 C1.375 7.25 1.375 7.25 -2 5 C-1.125 1.125 -1.125 1.125 0 0 Z " fill="#656B6B" transform="translate(199,343)"/>
<path d="M0 0 C0.33 1.32 0.66 2.64 1 4 C-3.75 6.875 -3.75 6.875 -6 8 C-6.33 7.01 -6.66 6.02 -7 5 C-6.34 4.67 -5.68 4.34 -5 4 C-4.67 3.01 -4.34 2.02 -4 1 C-2 0 -2 0 0 0 Z M-8 8 C-7.34 8 -6.68 8 -6 8 C-6 8.66 -6 9.32 -6 10 C-6.66 10 -7.32 10 -8 10 C-8 9.34 -8 8.68 -8 8 Z " fill="#8CA271" transform="translate(308,268)"/>
<path d="M0 0 C1.65 0 3.3 0 5 0 C5 1.98 5 3.96 5 6 C3.35 6 1.7 6 0 6 C0 4.02 0 2.04 0 0 Z " fill="#7F7E74" transform="translate(282,257)"/>
<path d="M0 0 C0.33 0 0.66 0 1 0 C1.33 7.92 1.66 15.84 2 24 C0.68 23.01 -0.64 22.02 -2 21 C-1.34 21 -0.68 21 0 21 C0 14.07 0 7.14 0 0 Z " fill="#98AA86" transform="translate(211,258)"/>
<path d="M0 0 C1.98 0.99 1.98 0.99 4 2 C4 2.33 4 2.66 4 3 C6.31 3.33 8.62 3.66 11 4 C9 6 9 6 7.08984375 6.23046875 C1.11111111 6.11111111 1.11111111 6.11111111 0 5 C-0.04063832 3.33382885 -0.042721 1.66611905 0 0 Z " fill="#9EAD8A" transform="translate(309,165)"/>
<path d="M0 0 C-0.33 1.32 -0.66 2.64 -1 4 C-3.31 4.33 -5.62 4.66 -8 5 C-6.19780722 -0.02039417 -5.34443412 -1.60333024 0 0 Z " fill="#90A777" transform="translate(215,158)"/>
<path d="M0 0 C0.33 1.32 0.66 2.64 1 4 C-1.475 5.485 -1.475 5.485 -4 7 C-4.99 5.68 -5.98 4.36 -7 3 C-2.25 0 -2.25 0 0 0 Z " fill="#606368" transform="translate(330,334)"/>
<path d="M0 0 C0.66 0.33 1.32 0.66 2 1 C-0.43161094 5.74164134 -0.43161094 5.74164134 -3.0625 6.9375 C-4.0215625 6.9684375 -4.0215625 6.9684375 -5 7 C-5.66 6.34 -6.32 5.68 -7 5 C-6.34 5 -5.68 5 -5 5 C-5 4.34 -5 3.68 -5 3 C-2.625 1.3125 -2.625 1.3125 0 0 Z M-8 7 C-7.01 7.33 -6.02 7.66 -5 8 C-5.99 8 -6.98 8 -8 8 C-8 7.67 -8 7.34 -8 7 Z " fill="#8CA170" transform="translate(297,277)"/>
<path d="M0 0 C0.66 0 1.32 0 2 0 C2.125 6.75 2.125 6.75 1 9 C1.66 9.33 2.32 9.66 3 10 C1.68 9.67 0.36 9.34 -1 9 C-1.09765625 2.84765625 -1.09765625 2.84765625 -1 1 C-0.67 0.67 -0.34 0.34 0 0 Z " fill="#545856" transform="translate(323,338)"/>
<path d="M0 0 C2.64 0 5.28 0 8 0 C7.67 0.66 7.34 1.32 7 2 C5.35 1.67 3.7 1.34 2 1 C2 2.65 2 4.3 2 6 C2.66 6.33 3.32 6.66 4 7 C3.34 8.32 2.68 9.64 2 11 C1.47007308 9.54494642 0.9513211 8.08581873 0.4375 6.625 C0.14746094 5.81289063 -0.14257812 5.00078125 -0.44140625 4.1640625 C-1 2 -1 2 0 0 Z " fill="#8E9291" transform="translate(154,315)"/>
<path d="M0 0 C0.66 0 1.32 0 2 0 C1.40353695 3.34019306 0.31705841 5.50470633 -2 8 C-2.99 8 -3.98 8 -5 8 C-5 8.66 -5 9.32 -5 10 C-6.65 10.66 -8.3 11.32 -10 12 C-9.34 11.01 -8.68 10.02 -8 9 C-7.34 9 -6.68 9 -6 9 C-6 8.34 -6 7.68 -6 7 C-4.3545622 5.31237149 -2.68711423 3.6459651 -1 2 C-0.67 1.34 -0.34 0.68 0 0 Z " fill="#E7E3D3" transform="translate(274,239)"/>
<path d="M0 0 C1.32 0.33 2.64 0.66 4 1 C4 1.66 4 2.32 4 3 C5.32 3.33 6.64 3.66 8 4 C7.34 5.32 6.68 6.64 6 8 C4.68 7.34 3.36 6.68 2 6 C2 4.68 2 3.36 2 2 C1.34 1.34 0.68 0.68 0 0 Z " fill="#92A576" transform="translate(299,170)"/>
<path d="M0 0 C0.66 0.66 1.32 1.32 2 2 C0.3125 4.0625 0.3125 4.0625 -2 6 C-4.75 5.75 -4.75 5.75 -7 5 C-6.360625 4.71125 -5.72125 4.4225 -5.0625 4.125 C-2.84793921 3.17176549 -2.84793921 3.17176549 -2 1 C-1.34 0.67 -0.68 0.34 0 0 Z " fill="#808383" transform="translate(261,345)"/>
<path d="M0 0 C0.66 0.33 1.32 0.66 2 1 C1.625 2.9375 1.625 2.9375 1 5 C0.01 5.495 0.01 5.495 -1 6 C-1.33 6.99 -1.66 7.98 -2 9 C-2.66 9 -3.32 9 -4 9 C-4.33 9.66 -4.66 10.32 -5 11 C-4.54663921 6.12637153 -3.2910841 3.60957611 0 0 Z " fill="#D2E2E5" transform="translate(188,195)"/>
<path d="M0 0 C0 0.33 0 0.66 0 1 C-0.67546875 1.02578125 -1.3509375 1.0515625 -2.046875 1.078125 C-7.75763932 1.34321728 -7.75763932 1.34321728 -12.625 4.0625 C-13.07875 4.701875 -13.5325 5.34125 -14 6 C-14 5.34 -14 4.68 -14 4 C-14.66 3.67 -15.32 3.34 -16 3 C-11.14640505 -1.01676824 -5.95027665 -0.28136159 0 0 Z " fill="#8B8F8F" transform="translate(228,324)"/>
<path d="M0 0 C1.65 0 3.3 0 5 0 C5 1.65 5 3.3 5 5 C3.35 5 1.7 5 0 5 C0 3.35 0 1.7 0 0 Z " fill="#757673" transform="translate(274,265)"/>
<path d="M0 0 C1.65 0 3.3 0 5 0 C5 1.65 5 3.3 5 5 C3.35 5 1.7 5 0 5 C0 3.35 0 1.7 0 0 Z " fill="#71716C" transform="translate(282,265)"/>
<path d="M0 0 C3 0 3 0 6 1 C5.67 1.99 5.34 2.98 5 4 C4.34 4 3.68 4 3 4 C2.67 4.66 2.34 5.32 2 6 C1.34 6 0.68 6 0 6 C-1.125 2.25 -1.125 2.25 0 0 Z " fill="#404444" transform="translate(325,339)"/>
<path d="M0 0 C1.32 0.33 2.64 0.66 4 1 C4 2.65 4 4.3 4 6 C3.34 6 2.68 6 2 6 C1.67 6.66 1.34 7.32 1 8 C0.67 5.36 0.34 2.72 0 0 Z " fill="#8CA072" transform="translate(319,238)"/>
<path d="M0 0 C0.33 0 0.66 0 1 0 C1 3.63 1 7.26 1 11 C-3 13 -3 13 -6 13 C-6 12.34 -6 11.68 -6 11 C-5.195625 10.62875 -4.39125 10.2575 -3.5625 9.875 C-0.86762813 8.30777176 -0.86762813 8.30777176 -0.4453125 6.02734375 C-0.21238262 4.02626435 -0.09895862 2.01215861 0 0 Z " fill="#B6CDCB" transform="translate(234,167)"/>
<path d="M0 0 C2 3 2 3 2 6 C-0.64 6.33 -3.28 6.66 -6 7 C-5.67 6.01 -5.34 5.02 -5 4 C-3.35 4 -1.7 4 0 4 C0 2.68 0 1.36 0 0 Z " fill="#7F8281" transform="translate(301,344)"/>
<path d="M0 0 C0.99 0 1.98 0 3 0 C3.33 1.32 3.66 2.64 4 4 C6.31 4 8.62 4 11 4 C11 4.33 11 4.66 11 5 C5.60550707 5.27429625 2.48074195 5.36055646 -2 2 C-1.34 1.34 -0.68 0.68 0 0 Z " fill="#8F9191" transform="translate(268,346)"/>
<path d="M0 0 C4.1424367 1.38081223 5.32203099 3.59825558 8 7 C7.34 7.66 6.68 8.32 6 9 C4.5 7.625 4.5 7.625 3 6 C3 5.34 3 4.68 3 4 C2.34 4 1.68 4 1 4 C0.67 2.68 0.34 1.36 0 0 Z " fill="#A7B491" transform="translate(185,265)"/>
<path d="M0 0 C-3.1254959 2.64465038 -6.08788267 3.84414715 -10 5 C-9.6875 3.0625 -9.6875 3.0625 -9 1 C-5.8035914 -0.06546953 -3.34252724 -0.07427838 0 0 Z " fill="#ABB79A" transform="translate(288,290)"/>
<path d="M0 0 C0.99 0.33 1.98 0.66 3 1 C3 1.66 3 2.32 3 3 C-1.29 3 -5.58 3 -10 3 C-9.67 2.34 -9.34 1.68 -9 1 C-7.700625 1.020625 -6.40125 1.04125 -5.0625 1.0625 C-3.70834367 1.08399454 -2.35243917 1.07148199 -1 1 C-0.67 0.67 -0.34 0.34 0 0 Z " fill="#596368" transform="translate(260,249)"/>
<path d="M0 0 C0.99 0.66 1.98 1.32 3 2 C3.66 2 4.32 2 5 2 C5.33 2.99 5.66 3.98 6 5 C4.35 5.33 2.7 5.66 1 6 C1 5.01 1 4.02 1 3 C0.01 2.67 -0.98 2.34 -2 2 C-1.34 1.34 -0.68 0.68 0 0 Z " fill="#6B6D6C" transform="translate(282,231)"/>
<path d="M0 0 C3 2 3 2 3.6875 4.625 C3.8421875 5.800625 3.8421875 5.800625 4 7 C2.68 7.33 1.36 7.66 0 8 C0 5.36 0 2.72 0 0 Z " fill="#8FA570" transform="translate(312,182)"/>
<path d="M0 0 C1.32 0.33 2.64 0.66 4 1 C4 1.66 4 2.32 4 3 C3.01 3.495 3.01 3.495 2 4 C1.67 4.99 1.34 5.98 1 7 C0.67 6.34 0.34 5.68 0 5 C-0.66 4.67 -1.32 4.34 -2 4 C-1.34 2.68 -0.68 1.36 0 0 Z " fill="#8BA071" transform="translate(184,185)"/>
<path d="M0 0 C0.99 0 1.98 0 3 0 C3 0.66 3 1.32 3 2 C5.97 2.495 5.97 2.495 9 3 C8.01 4.485 8.01 4.485 7 6 C4.625 5.8125 4.625 5.8125 2 5 C0.6875 2.4375 0.6875 2.4375 0 0 Z " fill="#8CA06E" transform="translate(291,163)"/>
<path d="M0 0 C2.64 0 5.28 0 8 0 C7.67 0.99 7.34 1.98 7 3 C4 4 4 4 1.8125 3.0625 C1.214375 2.711875 0.61625 2.36125 0 2 C0 1.34 0 0.68 0 0 Z " fill="#8DA470" transform="translate(266,151)"/>
<path d="M0 0 C0.66 0.66 1.32 1.32 2 2 C1.625 4.125 1.625 4.125 1 6 C0.01 6 -0.98 6 -2 6 C-2.33 4.35 -2.66 2.7 -3 1 C-2.01 0.67 -1.02 0.34 0 0 Z " fill="#454B4B" transform="translate(189,337)"/>
<path d="M0 0 C0.66 0 1.32 0 2 0 C3.0257259 4.41062136 3.03684712 6.92630576 1 11 C0.67 11 0.34 11 0 11 C0 7.37 0 3.74 0 0 Z " fill="#393E3D" transform="translate(295,318)"/>
<path d="M0 0 C0.99 0 1.98 0 3 0 C3.33 0.99 3.66 1.98 4 3 C3.01 4.485 3.01 4.485 2 6 C2 5.01 2 4.02 2 3 C-1.3 3 -4.6 3 -8 3 C-8 2.67 -8 2.34 -8 2 C-5.36 2 -2.72 2 0 2 C0 1.34 0 0.68 0 0 Z " fill="#DDEDEC" transform="translate(307,252)"/>
<path d="M0 0 C1.7074998 1.28062485 3.37373596 2.61767557 5 4 C5 4.66 5 5.32 5 6 C6.32 6.66 7.64 7.32 9 8 C8.34 8.66 7.68 9.32 7 10 C4.39841136 7.5284908 2.14130392 4.87968458 0 2 C0 1.34 0 0.68 0 0 Z " fill="#C3BFA1" transform="translate(288,242)"/>
<path d="M0 0 C0.66 0.33 1.32 0.66 2 1 C2 1.66 2 2.32 2 3 C1.34 3 0.68 3 0 3 C-0.33 4.65 -0.66 6.3 -1 8 C-1.99 7.34 -2.98 6.68 -4 6 C-3.34 4.68 -2.68 3.36 -2 2 C-1.34 2 -0.68 2 0 2 C0 1.34 0 0.68 0 0 Z " fill="#48504F" transform="translate(229,340)"/>
<path d="M0 0 C1.70884005 1.62339805 3.37446717 3.29319053 5 5 C5 5.66 5 6.32 5 7 C5.66 7 6.32 7 7 7 C6.67 7.66 6.34 8.32 6 9 C4.125 8.4375 4.125 8.4375 2 7 C0.75 3.375 0.75 3.375 0 0 Z " fill="#AAB697" transform="translate(190,263)"/>
<path d="M0 0 C0.66 0.33 1.32 0.66 2 1 C2.33 1.99 2.66 2.98 3 4 C2.67 4.33 2.34 4.66 2 5 C2.66 5.66 3.32 6.32 4 7 C3.01 7 2.02 7 1 7 C-0.6875 5 -0.6875 5 -2 3 C-1.34 2.01 -0.68 1.02 0 0 Z " fill="#828A8F" transform="translate(200,266)"/>
<path d="M0 0 C0.99 0.495 0.99 0.495 2 1 C3.35024359 5.1734802 2.7518819 8.73933592 2 13 C1.67 13 1.34 13 1 13 C0.67 8.71 0.34 4.42 0 0 Z " fill="#A3B290" transform="translate(319,207)"/>
<path d="M0 0 C-0.33 3.63 -0.66 7.26 -1 11 C-2.80330533 7.39338934 -3.46599103 4.91606575 -4 1 C-1 0 -1 0 0 0 Z " fill="#B4C0A0" transform="translate(181,202)"/>
<path d="M0 0 C1.65 0.33 3.3 0.66 5 1 C5 1.99 5 2.98 5 4 C3.68 3.67 2.36 3.34 1 3 C1 3.66 1 4.32 1 5 C0.34 5 -0.32 5 -1 5 C-0.67 3.35 -0.34 1.7 0 0 Z " fill="#A7B593" transform="translate(301,148)"/>
<path d="M0 0 C1.98 0 3.96 0 6 0 C4.515 1.98 4.515 1.98 3 4 C4.32 4.33 5.64 4.66 7 5 C5.02 5 3.04 5 1 5 C0.67 3.35 0.34 1.7 0 0 Z " fill="#849D7D" transform="translate(250,357)"/>
<path d="M0 0 C1.9375 0.75 1.9375 0.75 4 2 C4.75 4.125 4.75 4.125 5 6 C4.01 6.495 4.01 6.495 3 7 C3 6.34 3 5.68 3 5 C2.01 4.67 1.02 4.34 0 4 C0 2.68 0 1.36 0 0 Z " fill="#474C4C" transform="translate(335,333)"/>
<path d="M0 0 C0 0.66 0 1.32 0 2 C-3.99560608 4.83022097 -7.42737323 3.76210446 -12 3 C-12 2.67 -12 2.34 -12 2 C-10.37548581 1.66430703 -8.75037083 1.3315204 -7.125 1 C-6.22007812 0.814375 -5.31515625 0.62875 -4.3828125 0.4375 C-2 0 -2 0 0 0 Z " fill="#B5C4A5" transform="translate(269,291)"/>
<path d="M0 0 C0.99 0.33 1.98 0.66 3 1 C1.02 3.31 -0.96 5.62 -3 8 C-3.33 6.68 -3.66 5.36 -4 4 C-2.0625 1.75 -2.0625 1.75 0 0 Z " fill="#A4B592" transform="translate(306,272)"/>
<path d="M0 0 C2 3 2 3 2 5 C1.34 5 0.68 5 0 5 C0.33 5.99 0.66 6.98 1 8 C0.34 8.66 -0.32 9.32 -1 10 C-1.66 9.67 -2.32 9.34 -3 9 C-3 8.34 -3 7.68 -3 7 C-2.34 7 -1.68 7 -1 7 C-1.020625 6.030625 -1.04125 5.06125 -1.0625 4.0625 C-1 1 -1 1 0 0 Z " fill="#B7CBCA" transform="translate(199,213)"/>
<path d="M0 0 C1.32 0 2.64 0 4 0 C3.67 2.64 3.34 5.28 3 8 C1.58622659 5.36095629 0.62759865 2.92879371 0 0 Z " fill="#8E9F70" transform="translate(177,197)"/>
<path d="M0 0 C-0.99 0.495 -0.99 0.495 -2 1 C-2 1.66 -2 2.32 -2 3 C-3.32 3 -4.64 3 -6 3 C-6.33 3.66 -6.66 4.32 -7 5 C-7 3.68 -7 2.36 -7 1 C-3.375 -1.125 -3.375 -1.125 0 0 Z " fill="#626A6E" transform="translate(237,182)"/>
<path d="M0 0 C0.66 0.33 1.32 0.66 2 1 C0.9375 2.5625 0.9375 2.5625 -1 4 C-4.6875 3.6875 -4.6875 3.6875 -8 3 C-7.67 2.34 -7.34 1.68 -7 1 C-5.5459375 1.0309375 -5.5459375 1.0309375 -4.0625 1.0625 C-1.12534105 1.35618499 -1.12534105 1.35618499 0 0 Z " fill="#7D8080" transform="translate(173,347)"/>
<path d="M0 0 C0.99 1.32 1.98 2.64 3 4 C-0.3 3.34 -3.6 2.68 -7 2 C-7 1.67 -7 1.34 -7 1 C-3.535 0.505 -3.535 0.505 0 0 Z " fill="#47514E" transform="translate(281,344)"/>
<path d="M0 0 C1.99097846 2.98646769 2.94124926 5.59687262 4 9 C2.35 9.33 0.7 9.66 -1 10 C-0.835 9.0925 -0.67 8.185 -0.5 7.25 C0.10137146 3.88912497 0.10137146 3.88912497 0 0 Z " fill="#747878" transform="translate(165,325)"/>
<path d="M0 0 C1.32 0 2.64 0 4 0 C4.33 1.65 4.66 3.3 5 5 C4.01 5.495 4.01 5.495 3 6 C0.875 5.0625 0.875 5.0625 -1 4 C-0.67 2.68 -0.34 1.36 0 0 Z " fill="#424A49" transform="translate(335,325)"/>
<path d="M0 0 C1.32 0.33 2.64 0.66 4 1 C4 2.65 4 4.3 4 6 C2.68 5.34 1.36 4.68 0 4 C0 2.68 0 1.36 0 0 Z " fill="#8DA16C" transform="translate(179,251)"/>
<path d="M0 0 C0.33 0 0.66 0 1 0 C1.25 2.75 1.25 2.75 1 6 C-1 8.375 -1 8.375 -3 10 C-3 6.13304322 -1.58090029 3.4911548 0 0 Z " fill="#767D7F" transform="translate(237,242)"/>
<path d="M0 0 C0.66 0 1.32 0 2 0 C2 2.64 2 5.28 2 8 C1.01 8.495 1.01 8.495 0 9 C-1.125 2.25 -1.125 2.25 0 0 Z " fill="#889F6A" transform="translate(175,209)"/>
<path d="M0 0 C0.33 1.32 0.66 2.64 1 4 C-2.63 4 -6.26 4 -10 4 C-10 3.67 -10 3.34 -10 3 C-8.72125 2.87625 -7.4425 2.7525 -6.125 2.625 C-2.65209064 2.30957601 -2.65209064 2.30957601 0 0 Z " fill="#71A191" transform="translate(250,358)"/>
<path d="M0 0 C1.98 0.495 1.98 0.495 4 1 C3.67 2.65 3.34 4.3 3 6 C1.68 5.67 0.36 5.34 -1 5 C-0.34 4.67 0.32 4.34 1 4 C0.67 2.68 0.34 1.36 0 0 Z " fill="#B2BFA2" transform="translate(343,357)"/>
<path d="M0 0 C0.66 0.66 1.32 1.32 2 2 C0.68 2 -0.64 2 -2 2 C-2 2.66 -2 3.32 -2 4 C-3.65 3.67 -5.3 3.34 -7 3 C-4.6226839 0.6226839 -3.29714793 0.32971479 0 0 Z " fill="#8F9191" transform="translate(277,323)"/>
<path d="M0 0 C2 1.375 2 1.375 4 3 C4 3.66 4 4.32 4 5 C3.01 5.33 2.02 5.66 1 6 C0.34 5.67 -0.32 5.34 -1 5 C-0.67 3.35 -0.34 1.7 0 0 Z " fill="#424746" transform="translate(160,319)"/>
<path d="M0 0 C2.3431213 0.25561323 4.67843403 0.59270772 7 1 C7.33 1.66 7.66 2.32 8 3 C7.071875 2.979375 6.14375 2.95875 5.1875 2.9375 C1.97713989 2.84230396 1.97713989 2.84230396 -1 4 C-0.67 2.68 -0.34 1.36 0 0 Z " fill="#696A6A" transform="translate(296,313)"/>
<path d="M0 0 C3.3 0.33 6.6 0.66 10 1 C10 1.33 10 1.66 10 2 C3.375 3 3.375 3 0 3 C0 2.01 0 1.02 0 0 Z " fill="#B7C3A2" transform="translate(232,292)"/>
<path d="M0 0 C2.475 0.495 2.475 0.495 5 1 C4.67 2.32 4.34 3.64 4 5 C3.01 4.67 2.02 4.34 1 4 C0.3125 1.9375 0.3125 1.9375 0 0 Z " fill="#646A6B" transform="translate(290,241)"/>
<path d="M0 0 C0.66 0 1.32 0 2 0 C3.42944945 2.35438733 4.08661261 3.48032433 3.625 6.25 C3.41875 6.8275 3.2125 7.405 3 8 C1.5 6.8125 1.5 6.8125 0 5 C-0.1875 2.3125 -0.1875 2.3125 0 0 Z " fill="#8CA16B" transform="translate(321,210)"/>
<path d="M0 0 C0.33 0 0.66 0 1 0 C1.12117188 0.63808594 1.24234375 1.27617187 1.3671875 1.93359375 C1.53476562 2.75988281 1.70234375 3.58617187 1.875 4.4375 C2.03742188 5.26121094 2.19984375 6.08492187 2.3671875 6.93359375 C2.57601563 7.61550781 2.78484375 8.29742187 3 9 C3.66 9.33 4.32 9.66 5 10 C4.01 10 3.02 10 2 10 C-0.4294516 6.3558226 -0.16179575 4.28758728 0 0 Z " fill="#BAC79D" transform="translate(299,153)"/>
<path d="M0 0 C0.33 0.66 0.66 1.32 1 2 C4.02934491 2.65772428 4.02934491 2.65772428 7 3 C4 5 4 5 1.875 4.75 C0 4 0 4 -1 2 C-0.67 1.34 -0.34 0.68 0 0 Z " fill="#8EA371" transform="translate(279,154)"/>
<path d="M0 0 C0 0.99 0 1.98 0 3 C-1.98 3.99 -1.98 3.99 -4 5 C-4.66 4.34 -5.32 3.68 -6 3 C-3.8614515 0.8614515 -2.86724686 0.57344937 0 0 Z " fill="#89A16D" transform="translate(221,154)"/>
</svg>
